<svg width="1088" height="257" viewBox="0 0 1088 257" fill="none" xmlns="http://www.w3.org/2000/svg">
<g opacity="0.6">
<path fill-rule="evenodd" clip-rule="evenodd" d="M619.525 -565.17C706.188 -547.692 799.496 -541.827 856.87 -479.03C924.447 -405.065 970.768 -305.57 947.56 -206.129C923.602 -103.474 832.304 -28.9462 738.394 28.6127C642.484 87.3974 535.343 125.384 425.47 113.868C301.98 100.924 163.047 68.0144 109.768 -37.2774C57.8629 -139.855 129.457 -261.485 180.866 -369.528C221.705 -455.359 277.513 -537.933 366.974 -577.832C448.275 -614.092 534.451 -582.328 619.525 -565.17Z" stroke="white"/>
<path fill-rule="evenodd" clip-rule="evenodd" d="M682.056 -605.789C794.879 -581.375 855.959 -472.23 901.46 -371.568C941.085 -283.907 944.3 -186.247 914.444 -91.6811C885.488 0.0325837 833.039 92.8109 741.829 134.041C656.643 172.548 570.393 112.439 478.812 105.24C357.541 95.7081 208.314 169.601 127.809 85.7781C45.4049 -0.0223426 83.0023 -145.571 128.943 -259.049C170.267 -361.123 263.917 -428.193 360.365 -488.655C460.798 -551.616 569.069 -630.238 682.056 -605.789Z" stroke="white"/>
<path fill-rule="evenodd" clip-rule="evenodd" d="M699.059 -581.878C808.893 -582.243 921.42 -519.004 959.888 -422.7C996.212 -331.765 909.109 -239.503 873.729 -144.598C843.163 -62.6081 840.235 30.1532 769.925 86.8581C689.961 151.35 580.156 197.927 484.294 169.483C391.553 141.966 376.123 30.4212 322.507 -45.8964C262.398 -131.456 119.398 -196.092 156.235 -297.481C193.51 -400.076 358.495 -368.48 458.803 -421.033C547.702 -467.609 599.943 -581.548 699.059 -581.878Z" stroke="white"/>
<path fill-rule="evenodd" clip-rule="evenodd" d="M649.846 -596.179C754.041 -580.288 830.598 -495.805 871.214 -403.93C907.619 -321.578 866.464 -231.452 851.168 -140.774C832.468 -29.9216 870.51 109.066 773.417 175.807C675.751 242.943 551.988 166.267 438.628 142.807C324.066 119.098 176.336 136.959 119.509 40.478C62.8492 -55.7204 137.782 -177.43 188.422 -281.997C228.425 -364.601 293.638 -427.024 371.625 -480.125C457.795 -538.798 548.837 -611.585 649.846 -596.179Z" stroke="white"/>
<path fill-rule="evenodd" clip-rule="evenodd" d="M626.559 -555.185C704.991 -528.61 798.266 -532.529 849.505 -470.78C906.441 -402.164 912.544 -309.77 904.778 -219.895C894.635 -102.52 896.902 32.1562 799.439 108.584C695.567 190.037 547.293 190.405 422.651 158.176C303.136 127.272 202.737 48.5511 152.454 -58.712C106.385 -156.985 138.359 -269.337 172.25 -375.977C204.78 -478.338 234.494 -602.944 338.443 -643.948C438.796 -683.534 527.809 -588.646 626.559 -555.185Z" stroke="white"/>
<path fill-rule="evenodd" clip-rule="evenodd" d="M607.129 -504.534C715.919 -485.489 870.621 -530.563 917.455 -436.126C964.798 -340.662 825.802 -247.735 785.423 -145.021C752.445 -61.1329 785.528 52.6324 706.102 101.503C626.509 150.476 534.317 80.8425 444.378 64.8237C348.288 47.7092 222.138 83.116 169.619 5.95095C116.863 -71.5628 195.353 -172.551 219.489 -265.603C244.736 -362.936 222.483 -487.109 311.789 -542.155C401.336 -597.35 505.819 -522.27 607.129 -504.534Z" stroke="white"/>
<path fill-rule="evenodd" clip-rule="evenodd" d="M622.475 -539.362C701.072 -518.41 758.357 -466.091 808.894 -406.007C871.426 -331.662 948.889 -258.227 941.335 -160.262C932.643 -47.5279 875.67 77.2169 767.717 128.04C663.471 177.117 555.22 102.958 447.895 72.0425C353.134 44.7464 247.231 36.0666 188.434 -38.825C124.163 -120.69 92.055 -232.872 129.574 -333.416C165.458 -429.577 271.069 -482.223 369.192 -523.221C451.123 -557.454 539.181 -561.567 622.475 -539.362Z" stroke="white"/>
<path fill-rule="evenodd" clip-rule="evenodd" d="M618.062 -554.032C710.086 -532.799 766.093 -454.278 814.101 -377.482C862.671 -299.788 903.21 -215.452 887.323 -123.311C869.731 -21.278 824.653 92.9415 725.354 137.238C629.907 179.817 531.608 113.444 437.61 77.3037C364.579 49.2248 298.133 15.0876 251.573 -44.9202C198.392 -113.461 143.969 -191.205 162.037 -277.859C180.92 -368.422 260.721 -435.892 343.551 -486.054C427.507 -536.899 524.905 -575.527 618.062 -554.032Z" stroke="white"/>
</g>
</svg>
