<svg width="50" height="30" viewBox="0 0 50 30" fill="none" xmlns="http://www.w3.org/2000/svg">
<path d="M50 15C50 23.254 43.3333 30 35 30C26.746 30 20 23.254 20 15C20 6.74603 26.6667 0 34.9206 0C43.3333 0 50 6.74603 50 15Z" fill="#FFB600"/>
<path d="M35 0C43.254 0 50 6.74603 50 15C50 23.254 43.3333 30 35 30C26.746 30 20 23.254 20 15" fill="#F7981D"/>
<path d="M35 0C43.254 0 50 6.74603 50 15C50 23.254 43.3333 30 35 30" fill="#FF8500"/>
<path d="M14.8413 0C6.66667 0.0793651 0 6.74603 0 15C0 23.254 6.66667 30 15 30C18.8889 30 22.3809 28.4921 25.0794 26.1111C25.6349 25.6349 26.1111 25.0794 26.5873 24.5238H23.4921C23.0952 24.0476 22.6984 23.4921 22.381 23.0159H27.6984C28.0159 22.5397 28.3333 21.9841 28.5714 21.4286H21.5079C21.2698 20.9524 21.0317 20.3968 20.873 19.8413H29.127C29.6032 18.3333 29.9206 16.746 29.9206 15.0794C29.9206 13.9683 29.7619 12.9365 29.6032 11.9048H20.3968C20.4762 11.3492 20.6349 10.873 20.7936 10.3175H29.0476C28.8889 9.7619 28.6508 9.20635 28.4127 8.73016H21.4286C21.6667 8.1746 21.9841 7.69841 22.3016 7.14286H27.619C27.3016 6.5873 26.9048 6.03175 26.4286 5.55556H23.4921C23.9683 5 24.4444 4.52381 25 4.04762C22.381 1.5873 18.8095 0.15873 14.9206 0.15873C14.9206 -1.53742e-07 14.9206 0 14.8413 0Z" fill="#FF5050"/>
<path d="M0 15C0 23.254 6.66667 30 15 30C18.8889 30 22.3809 28.4921 25.0794 26.1111C25.6349 25.6349 26.1111 25.0794 26.5873 24.5238H23.4921C23.0952 24.0476 22.6984 23.4921 22.381 23.0159H27.6984C28.0159 22.5397 28.3333 21.9841 28.5714 21.4286H21.5079C21.2698 20.9524 21.0317 20.3968 20.873 19.8413H29.127C29.6032 18.3333 29.9206 16.746 29.9206 15.0794C29.9206 13.9683 29.7619 12.9365 29.6032 11.9048H20.3968C20.4762 11.3492 20.6349 10.873 20.7936 10.3175H29.0476C28.8889 9.76191 28.6508 9.20636 28.4127 8.73017H21.4286C21.6667 8.17461 21.9841 7.69842 22.3016 7.14287H27.619C27.3016 6.58731 26.9048 6.03176 26.4286 5.55556H23.4921C23.9683 5.00001 24.4444 4.52382 25 4.04763C22.381 1.58731 18.8095 0.15874 14.9206 0.15874H14.8413" fill="#E52836"/>
<path d="M15 30C18.8889 30 22.3809 28.4921 25.0793 26.1111C25.6349 25.6349 26.1111 25.0794 26.5873 24.5238H23.492C23.0952 24.0476 22.6984 23.4921 22.3809 23.0159H27.6984C28.0159 22.5397 28.3333 21.9841 28.5714 21.4286H21.5079C21.2698 20.9524 21.0317 20.3968 20.873 19.8413H29.127C29.6032 18.3333 29.9206 16.746 29.9206 15.0794C29.9206 13.9683 29.7619 12.9365 29.6032 11.9048H20.3968C20.4762 11.3492 20.6349 10.873 20.7936 10.3175H29.0476C28.8889 9.76191 28.6508 9.20636 28.4127 8.73017H21.4285C21.6666 8.17461 21.9841 7.69842 22.3016 7.14287H27.619C27.3016 6.58731 26.9047 6.03176 26.4285 5.55556H23.492C23.9682 5.00001 24.4444 4.52382 25 4.04763C22.3809 1.58731 18.8095 0.15874 14.9206 0.15874H14.8412" fill="#CB2026"/>
</svg>
