<svg width="44" height="30" viewBox="0 0 44 30" fill="none" xmlns="http://www.w3.org/2000/svg">
<path d="M43.7503 27.4284C43.7503 28.8486 42.5991 29.9999 41.1789 29.9999H2.82102C1.40087 30 0.249634 28.8486 0.249634 27.4284V2.57147C0.249634 1.15124 1.40087 0 2.82102 0H41.1789C42.5991 0 43.7503 1.15132 43.7503 2.57147V27.4284Z" fill="white"/>
<path d="M9.90472 15.1729L8.8833 10.273C8.7087 9.59731 8.20063 9.39629 7.56579 9.3697H2.88284L2.84113 9.59358C6.48847 10.4778 8.90182 12.6108 9.90472 15.1729Z" fill="#F79F1A"/>
<path d="M20.7556 9.46828H17.7299L15.8401 20.5581H18.8609L20.7556 9.46828ZM11.7488 20.547L16.5076 9.47584H13.3053L10.3449 17.0399L10.029 15.8978C9.44867 14.5239 7.7902 12.5464 5.84321 11.3015L8.54926 20.5508L11.7488 20.547ZM29.3858 16.9329C29.397 15.6738 28.5886 14.7135 26.8466 13.9203C25.7878 13.408 25.1426 13.0663 25.1503 12.5465C25.1503 12.0872 25.6968 11.5938 26.8808 11.5938C27.8715 11.5786 28.5849 11.7949 29.1428 12.0188L29.4162 12.1442L29.8263 9.74169C29.2265 9.51764 28.289 9.27856 27.1164 9.27856C24.1294 9.27856 22.0268 10.7816 22.0078 12.9374C21.9888 14.5315 23.5109 15.4196 24.657 15.9509C25.8335 16.4924 26.2282 16.839 26.2206 17.3248C26.2131 18.0676 25.2831 18.4064 24.414 18.4064C23.2033 18.4064 22.5618 18.2394 21.567 17.825L21.1804 17.6474L20.7558 20.1325C21.4612 20.4408 22.7667 20.7103 24.1218 20.7215C27.2983 20.7215 29.3631 19.2376 29.3858 16.9329ZM32.9799 18.8959C33.3253 18.8959 36.4108 18.8998 36.8513 18.8998C36.9424 19.2859 37.2194 20.5621 37.2194 20.5621H40.0241L37.5761 9.47975H35.242C34.517 9.47975 33.9783 9.67712 33.6593 10.3981L29.1695 20.5621H32.3464C32.3462 20.5621 32.8622 19.1959 32.9799 18.8959ZM35.052 13.5255C35.0371 13.5558 35.3027 12.8841 35.4545 12.4666L35.6593 13.4229C35.6593 13.4229 36.2364 16.0722 36.3577 16.6263H33.849C34.0995 15.9888 35.052 13.5255 35.052 13.5255ZM41.1789 0H2.82102C1.40087 0 0.249634 1.15124 0.249634 2.57147V5.2403H43.7503V2.57147C43.7503 1.15124 42.5991 0 41.1789 0Z" fill="#059BBF"/>
<path d="M41.1789 30H2.82102C1.40087 30 0.249634 28.8487 0.249634 27.4285V24.7597H43.7503V27.4285C43.7503 28.8487 42.5991 30 41.1789 30Z" fill="#F79F1A"/>
<path opacity="0.15" d="M2.07777 27.4284V2.57147C2.07777 1.15124 3.22909 0 4.64932 0H2.82093C1.40087 0 0.249634 1.15124 0.249634 2.57147V27.4284C0.249634 28.8487 1.40087 30 2.82102 30H4.6494C3.22917 30 2.07777 28.8486 2.07777 27.4284Z" fill="#202121"/>
</svg>
