<?xml version="1.0" encoding="utf-8"?>
<!-- Generator: Adobe Illustrator 27.5.0, SVG Export Plug-In . SVG Version: 6.00 Build 0)  -->
<svg version="1.1" xmlns="http://www.w3.org/2000/svg" xmlns:xlink="http://www.w3.org/1999/xlink" x="0px" y="0px"
	 viewBox="0 0 500 500" style="enable-background:new 0 0 500 500;" xml:space="preserve">
<g id="BACKGROUND">
	<rect style="fill:none;" width="500" height="500"/>
</g>
<g id="OBJECTS">
	<g id="Shadow">
		<ellipse style="fill:#CCC5B9;" cx="247.378" cy="302.15" rx="90.807" ry="15.565"/>
	</g>
	<g>
		<g>
			<g>
				<g>
					<path style="fill:#403D39;" d="M295.897,305.803c-9.165,4.096-27.189,6.883-47.901,6.883c-20.721,0-38.736-2.788-47.901-6.883
						c-2.768-1.227-4.724-2.585-5.708-4.015c-0.487-0.699-0.74-1.419-0.74-2.149v4.298c0,0.385,0.071,0.76,0.213,1.135
						c2.393,6.681,25.719,12.642,54.135,12.642c28.406,0,51.743-5.962,54.135-12.642c0.142-0.375,0.213-0.75,0.213-1.135v-4.298
						L295.897,305.803z"/>
					<path style="fill:#252422;" d="M295.897,305.803c-9.165,4.096-27.189,6.883-47.901,6.883c-20.721,0-38.736-2.788-47.901-6.883
						c-2.768-1.227-4.724-2.585-5.708-4.015c-0.487-0.699-0.74-1.419-0.74-2.149v4.298c0,0.385,0.071,0.76,0.213,1.135
						c2.393,6.681,25.719,12.642,54.135,12.642c28.406,0,51.743-5.962,54.135-12.642c0.142-0.375,0.213-0.75,0.213-1.135v-4.298
						L295.897,305.803z"/>
					<path style="fill:#403D39;" d="M302.344,299.639c0,0.73-0.254,1.45-0.74,2.149c-3.204,4.653-16.666,8.475-34.62,10.077
						c-5.91,0.537-12.307,0.821-18.988,0.821c-20.721,0-38.736-2.788-47.901-6.883c-2.768-1.227-4.724-2.585-5.708-4.015
						c-0.487-0.699-0.74-1.419-0.74-2.149c0-7.198,24.331-13.047,54.348-13.047c4.633,0,9.124,0.142,13.412,0.406
						C284.938,288.427,302.344,293.557,302.344,299.639z"/>
				</g>
				<g>
					<path style="opacity:0.2;fill:#F2F2F2;" d="M299.36,298.923c-0.155,0.677-0.836,2.095-1.425,2.645
						c-4.036,3.77-17.157,4.154-22.942,2.379l-30.676-15.648v-1.714c4.37,0,12.3,0.142,16.355,0.395
						C282.919,288.321,300.519,293.853,299.36,298.923z"/>
				</g>
				<path style="opacity:0.3;fill:#F2F2F2;" d="M291.862,297.832c-0.167,0.267-4.858,3.512-19.721-1.375
					c0,0-14.295-3.752-16.331-4.536c0.217-0.651,0.317-1.386,0.317-2.187l-0.368-1.435c0,0,2.336-0.232,8.41,0.549
					C277.279,290.534,296.57,293.532,291.862,297.832z"/>
				<g>
					<path style="opacity:0.2;fill:#F2F2F2;" d="M196.904,298.923c0.155,0.677,0.836,2.095,1.425,2.645
						c4.036,3.77,17.157,4.154,22.942,2.379l30.676-15.648v-1.714c-4.37,0-12.3,0.142-16.355,0.395
						C213.345,288.321,195.746,293.853,196.904,298.923z"/>
				</g>
				<path style="opacity:0.3;fill:#F2F2F2;" d="M204.402,297.832c0.167,0.267,4.858,3.512,19.721-1.375
					c0,0,14.295-3.752,16.331-4.536c-0.217-0.651-0.317-1.386-0.317-2.187l0.368-1.435c0,0-2.336-0.232-8.41,0.549
					C218.985,290.534,199.694,293.532,204.402,297.832z"/>
			</g>
			<g>
				<path style="fill:#403D39;" d="M247.378,297.077L247.378,297.077c-5.039,0-9.124-2.057-9.124-7.096v-48.358h18.248v48.358
					C256.502,295.019,252.417,297.077,247.378,297.077z"/>
			</g>
			<g>
				<g>
					<g>
						<g>
							<path style="fill:#252422;" d="M272.344,121.556l-47.197,53.875l-29.839-26.137c-8.039-7.042-12.173-16.886-12.227-26.796
								c0-1.104,0.04-2.195,0.148-3.299c0.121-1.4,0.323-2.801,0.619-4.188c0.592-2.828,1.522-5.602,2.814-8.254
								c0.471-0.969,0.996-1.925,1.562-2.868c1.064-1.791,2.316-3.501,3.73-5.117c3.488-3.972,7.635-6.989,12.146-9.035
								c12.415-5.615,27.483-3.865,38.39,5.682L272.344,121.556z"/>
						</g>
						<g style="opacity:0.2;">
							<path style="fill:#F2F2F2;" d="M268.261,123.08c0.794-0.929,0.696-2.323-0.221-3.131l-26.141-23.072
								c-4.161-3.625-9.304-5.803-14.253-6.901c-17.313-3.842-21.99,5.504-21.99,5.504c-5.415,8,2.064,17.825,9.366,24.085
								l30.415,26.733c0.937,0.824,2.368,0.722,3.178-0.227L268.261,123.08z"/>
						</g>
						<g style="opacity:0.3;">
							<path style="fill:#F2F2F2;" d="M266.284,120.664l-23.402-20.366c-3.297-2.869-6.979-5.286-10.99-7.022
								c-9.637-4.173-13.168-2.079-14.075-1.021c0,0-6.97,4.268,5.766,15.195l31.284,26.527c0.679,0.576,1.696,0.495,2.275-0.181
								l9.308-10.857C267.029,122.264,266.955,121.248,266.284,120.664z"/>
						</g>
						<g>
							<g>
								<path style="fill:#252422;" d="M200.37,138.886c1.479,1.295,1.628,3.545,0.333,5.024c-1.295,1.479-3.544,1.628-5.023,0.333
									c-1.479-1.295-1.628-3.544-0.333-5.024C196.642,137.74,198.891,137.591,200.37,138.886z"/>
								<path style="fill:#252422;" d="M212.754,124.745c1.479,1.295,1.628,3.544,0.333,5.024c-1.295,1.479-3.544,1.628-5.023,0.333
									c-1.479-1.295-1.628-3.545-0.333-5.024C209.026,123.599,211.275,123.45,212.754,124.745z"/>
								<path style="fill:#252422;" d="M225.137,110.604c1.479,1.295,1.628,3.544,0.333,5.024c-1.295,1.479-3.544,1.628-5.023,0.333
									c-1.479-1.295-1.628-3.544-0.333-5.023C221.409,109.458,223.658,109.309,225.137,110.604z"/>
								<path style="fill:#252422;" d="M237.521,96.463c1.479,1.295,1.628,3.544,0.333,5.023c-1.295,1.479-3.544,1.628-5.023,0.333
									c-1.479-1.295-1.628-3.544-0.333-5.024C233.793,95.317,236.042,95.168,237.521,96.463z"/>
							</g>
							<g>
								<path style="fill:#252422;" d="M196.042,110.11c1.479,1.295,1.628,3.544,0.333,5.024c-1.295,1.479-3.544,1.628-5.024,0.333
									c-1.479-1.295-1.628-3.544-0.333-5.023C192.314,108.964,194.563,108.815,196.042,110.11z"/>
								<path style="fill:#252422;" d="M208.425,95.969c1.479,1.295,1.628,3.544,0.333,5.023c-1.295,1.479-3.544,1.628-5.023,0.333
									c-1.479-1.295-1.628-3.544-0.333-5.023C204.697,94.823,206.946,94.674,208.425,95.969z"/>
							</g>
							<g>
								<path style="fill:#252422;" d="M217.082,153.521c1.479,1.295,1.628,3.544,0.333,5.024c-1.295,1.479-3.544,1.628-5.023,0.333
									c-1.479-1.295-1.628-3.544-0.333-5.023C213.354,152.375,215.603,152.226,217.082,153.521z"/>
								<path style="fill:#252422;" d="M229.466,139.38c1.479,1.295,1.628,3.544,0.333,5.023c-1.295,1.479-3.544,1.628-5.023,0.333
									c-1.479-1.295-1.628-3.544-0.333-5.024C225.738,138.234,227.987,138.085,229.466,139.38z"/>
								<path style="fill:#252422;" d="M241.849,125.239c1.479,1.295,1.628,3.545,0.333,5.024c-1.295,1.479-3.544,1.628-5.023,0.333
									c-1.479-1.295-1.628-3.544-0.333-5.024C238.121,124.093,240.37,123.944,241.849,125.239z"/>
								<path style="fill:#252422;" d="M254.233,111.098c1.479,1.295,1.628,3.544,0.333,5.024c-1.295,1.479-3.544,1.628-5.023,0.333
									c-1.479-1.295-1.628-3.544-0.333-5.023C250.505,109.952,252.754,109.803,254.233,111.098z"/>
							</g>
							<g>
								<path style="fill:#252422;" d="M230.773,153.018c1.479,1.295,1.628,3.544,0.333,5.024c-1.295,1.479-3.544,1.628-5.024,0.333
									c-1.479-1.295-1.628-3.545-0.333-5.024C227.045,151.871,229.294,151.722,230.773,153.018z"/>
								<path style="fill:#252422;" d="M243.157,138.877c1.479,1.295,1.628,3.544,0.333,5.024c-1.295,1.479-3.544,1.628-5.024,0.333
									c-1.479-1.295-1.628-3.544-0.333-5.023C239.428,137.73,241.677,137.581,243.157,138.877z"/>
								<path style="fill:#252422;" d="M255.54,124.736c1.479,1.295,1.628,3.544,0.333,5.023c-1.295,1.479-3.544,1.628-5.024,0.333
									c-1.479-1.295-1.628-3.545-0.333-5.024C251.812,123.59,254.061,123.44,255.54,124.736z"/>
							</g>
							<g>
								<path style="fill:#252422;" d="M214.918,139.133c1.479,1.295,1.628,3.544,0.333,5.023c-1.295,1.479-3.544,1.628-5.023,0.333
									c-1.479-1.295-1.628-3.544-0.333-5.024C211.19,137.987,213.439,137.838,214.918,139.133z"/>
								<path style="fill:#252422;" d="M227.302,124.992c1.479,1.295,1.628,3.544,0.333,5.024c-1.295,1.479-3.544,1.628-5.023,0.333
									c-1.479-1.295-1.628-3.544-0.333-5.024C223.573,123.846,225.822,123.697,227.302,124.992z"/>
								<path style="fill:#252422;" d="M239.685,110.851c1.479,1.295,1.628,3.544,0.333,5.024c-1.295,1.479-3.544,1.628-5.023,0.333
									c-1.479-1.295-1.628-3.544-0.333-5.023C235.957,109.705,238.206,109.556,239.685,110.851z"/>
							</g>
							<g>
								<path style="fill:#252422;" d="M198.206,124.498c1.479,1.295,1.628,3.544,0.333,5.024c-1.295,1.479-3.544,1.628-5.023,0.333
									c-1.479-1.295-1.628-3.545-0.333-5.024C194.478,123.352,196.727,123.203,198.206,124.498z"/>
								<path style="fill:#252422;" d="M210.59,110.357c1.479,1.295,1.628,3.544,0.333,5.024c-1.295,1.479-3.544,1.628-5.023,0.333
									c-1.479-1.295-1.628-3.544-0.333-5.023C206.861,109.211,209.11,109.062,210.59,110.357z"/>
								<path style="fill:#252422;" d="M222.973,96.216c1.479,1.295,1.628,3.544,0.333,5.023c-1.295,1.479-3.544,1.628-5.023,0.333
									c-1.479-1.295-1.628-3.544-0.333-5.024C219.245,95.07,221.494,94.921,222.973,96.216z"/>
							</g>
						</g>
					</g>
					<path style="fill:#252422;" d="M232.51,140.049c0,0,1.077,7.154-3.228,10.478c-2.064,1.594-5.378,2.288-10.652,0.919
						c-0.494-0.139-22.099-17.854-35.505-28.898c-1.559-1.284-2.42-3.241-2.245-5.253c0.406-4.648,1.718-9.232,3.962-13.481
						c0.315-0.601,6.601-10.865,17.702-13.319c-0.918,0.487-7.419,4.344-11.036,8.851c-1.939,2.416-1.558,5.946,0.842,7.906
						L232.51,140.049z"/>
					<path style="fill:#403D39;" d="M229.281,150.52c-2.06,1.602-5.373,2.289-10.651,0.929
						c-0.498-0.148-22.097-17.855-35.509-28.897c-1.549-1.293-2.41-3.245-2.235-5.251c0.067-0.848,0.175-1.71,0.323-2.545
						c0.162-1.037,0.363-2.074,0.633-3.097c0.539-2.155,1.279-4.269,2.235-6.302c0.243-0.525,0.498-1.037,0.768-1.549
						c0.31-0.592,6.598-10.853,17.694-13.317c-0.916,0.485-7.419,4.349-11.028,8.86c-1.939,2.41-1.562,5.938,0.835,7.904
						l40.168,32.788C232.513,140.044,233.59,147.208,229.281,150.52z"/>
					<path style="opacity:0.3;fill:#F2F2F2;" d="M232.46,139.956c0,0,1.077,7.154-3.228,10.477c2.611-3.583,1.787-8.964,1.787-8.964
						l-41.18-33.671c-3.018-2.468-3.268-7-0.519-9.765c3.006-3.023,7.452-6.365,13.177-7.625c-0.922,0.472-7.422,4.331-11.04,8.846
						c-1.931,2.413-1.559,5.947,0.846,7.9L232.46,139.956z"/>
				</g>
				<g>
					<g>
						<path style="fill:#EB5E28;" d="M288.24,217.542c-1.353,1.574-2.853,3.025-4.5,4.328c-0.418,0.344-0.836,0.664-1.279,0.959
							c-2.68,1.992-5.705,3.59-8.976,4.771c-1.131,0.394-2.287,0.738-3.418,1.008c-0.959,0.27-1.893,0.467-2.853,0.59
							c-0.492,0.098-1.008,0.172-1.5,0.221c0.025-0.025,0.025-0.049,0.025-0.049c0.221-0.123,0.418-0.246,0.639-0.393
							c-0.271,0.147-0.541,0.295-0.836,0.467c-6.762,0.836-13.476-0.344-19.427-3.172c-1.377-0.664-2.73-1.402-4.008-2.238v-60.445
							l-1.967-0.32v-1.328h-7.205l48.764-17.484l13.378,37.329c1.131,3.098,1.795,6.246,2.016,9.369
							C297.831,200.893,294.585,210.41,288.24,217.542z"/>
						<path style="fill:#EB5E28;" d="M240.14,161.941v1.328l-0.27-0.049v59.264c-5.41-4.033-9.714-9.664-12.173-16.525
							l-5.066-14.115l-8.336-23.214l8.336-3l10.304-3.689H240.14z"/>
						<path style="fill:#FFB703;" d="M239.87,163.22l2.238,0.369v60.445c-0.762-0.467-1.5-0.984-2.238-1.549V163.22z"/>
						<path style="fill:#FFB703;" d="M266.625,228.829c-0.295,0.197-0.59,0.369-0.885,0.541c0,0,0,0.025-0.025,0.049
							c-0.074,0-0.123,0.024-0.172,0.024C265.912,229.222,266.256,229.025,266.625,228.829z"/>
					</g>
					<path style="opacity:0.2;fill:#F2F2F2;" d="M287.734,163.919l6.518,18.16c3.249,9.053-1.456,19.026-10.509,22.275l0,0
						c-9.053,3.249-19.026-1.456-22.275-10.509l-6.518-18.16L287.734,163.919z"/>
					<g style="opacity:0.3;">
						<path style="fill:#F2F2F2;" d="M287.611,168.741l2.714,7.562c1.634,4.553-0.732,9.568-5.285,11.202l0,0
							c-4.553,1.634-9.568-0.732-11.202-5.285l-2.714-7.561c-0.54-1.506,0.242-3.165,1.748-3.705l11.034-3.96
							C285.412,166.453,287.071,167.235,287.611,168.741z"/>
					</g>
					<g>
						<path style="fill:#403D39;" d="M289.001,159.59l-70.997,25.482c-1.199,0.43-2.52-0.193-2.95-1.392l-6.275-17.483
							c-0.43-1.199,0.193-2.52,1.392-2.95l70.998-25.482c1.199-0.43,2.519,0.193,2.95,1.392l6.275,17.483
							C290.823,157.839,290.2,159.159,289.001,159.59z"/>
					</g>
					<path style="opacity:0.2;fill:#F2F2F2;" d="M287.01,158.17l-33.97,12.192l-6.507-18.129l33.97-12.192
						c0.926-0.332,1.945,0.149,2.277,1.074l5.304,14.777C288.417,156.818,287.936,157.838,287.01,158.17z"/>
					<path style="opacity:0.3;fill:#F2F2F2;" d="M283.552,158.335l-12.363,4.437c-1.065,0.382-2.239-0.171-2.622-1.237
						l-4.437-12.363c-0.382-1.065,0.171-2.239,1.237-2.621l12.363-4.437c1.065-0.382,2.239,0.171,2.621,1.237l4.437,12.363
						C285.171,156.779,284.618,157.952,283.552,158.335z"/>
				</g>
			</g>
			<g>
				<path style="fill:#403D39;" d="M283.74,221.87v3.91c0,19.23-13.058,21.099-30.542,21.099c-13.796,0-25.501-2.853-29.288-13.156
					c-0.836-2.262-1.279-4.894-1.279-7.943v-63.838h17.509v63.838c0,3,1.008,5.73,2.705,7.943c0.123,0.172,0.295,0.369,0.418,0.516
					c0.025,0.049,0.074,0.074,0.074,0.098c0.148,0.148,0.271,0.295,0.393,0.418c0.049,0.049,0.074,0.098,0.123,0.123
					c0.098,0.123,0.221,0.221,0.32,0.32c0.049,0.074,0.148,0.148,0.221,0.197c0.344,0.344,0.713,0.664,1.131,0.934
					c0.148,0.123,0.32,0.246,0.467,0.344c0.049,0.025,0.098,0.074,0.147,0.098c0.172,0.123,0.344,0.221,0.517,0.295
					c0.025,0.025,0.025,0.049,0.049,0.049c0.172,0.098,0.32,0.197,0.492,0.271c0.098,0.049,0.221,0.098,0.295,0.147
					c0.049,0.025,0.123,0.049,0.172,0.074c0.147,0.074,0.295,0.148,0.443,0.197c0.025,0,0.025,0.025,0.025,0.025
					c0.197,0.074,0.369,0.147,0.566,0.221c0.172,0.049,0.344,0.123,0.516,0.172c0.271,0.074,0.516,0.147,0.787,0.221
					c0.147,0.049,0.32,0.074,0.492,0.123c0.074,0,0.123,0.025,0.172,0.025c0.172,0.025,0.369,0.074,0.541,0.098l0.59,0.074
					c0.197,0.025,0.393,0.049,0.615,0.049c0.074,0,0.172,0,0.246,0.025h0.541c0.27,0,0.516,0,0.787-0.025l0.541-0.049
					c0.221,0,0.443-0.049,0.664-0.074c0.148-0.025,0.32-0.049,0.467-0.074c0.098-0.025,0.172-0.049,0.246-0.049
					c0.369-0.074,0.689-0.172,1.057-0.271c0.123-0.049,0.27-0.098,0.418-0.147c0.049,0,0.098-0.025,0.123-0.049
					c0.098-0.025,0.221-0.049,0.32-0.123c0.123-0.025,0.246-0.074,0.344-0.123c0.049-0.025,0.099-0.049,0.148-0.074
					c0.148-0.049,0.27-0.098,0.418-0.172c0.221-0.098,0.418-0.221,0.639-0.32c0.148-0.074,0.295-0.172,0.443-0.27
					c0.148-0.074,0.271-0.148,0.394-0.221c0.148-0.098,0.246-0.172,0.369-0.271c0.098-0.049,0.197-0.123,0.295-0.197
					c0.418-0.295,0.836-0.639,1.18-0.984c0.123-0.098,0.221-0.197,0.344-0.32l0.074-0.049c0.098-0.123,0.221-0.246,0.32-0.344
					c0.049-0.049,0.074-0.074,0.098-0.123c0.098-0.123,0.221-0.221,0.295-0.344c0.271-0.32,0.541-0.664,0.787-1.008
					c0.074-0.098,0.147-0.221,0.221-0.344c0.074-0.123,0.147-0.246,0.221-0.393c0.074-0.098,0.148-0.197,0.197-0.32
					c0.025-0.049,0.049-0.098,0.098-0.148c0.074-0.172,0.148-0.344,0.246-0.516c0.049-0.098,0.098-0.172,0.123-0.27
					c0.099-0.246,0.197-0.467,0.295-0.689c0.074-0.197,0.147-0.393,0.221-0.615c0.049-0.148,0.098-0.295,0.123-0.443
					c0.492-0.049,1.008-0.123,1.5-0.221c0.959-0.123,1.894-0.32,2.853-0.59c1.131-0.27,2.287-0.615,3.418-1.008
					c3.271-1.18,6.295-2.779,8.976-4.771C282.904,222.533,283.322,222.214,283.74,221.87z"/>
			</g>
			<path style="fill:#252422;" d="M283.74,221.87v3.91c0,19.23-13.058,21.099-30.542,21.099c-13.796,0-25.501-2.853-29.288-13.156
				c3.801,5.196,27.376,9.538,27.376,9.538l-9.597-9.341l1.156-0.197c0.123,0.172,0.295,0.369,0.418,0.516
				c0.025,0.049,0.074,0.074,0.074,0.098c0.148,0.148,0.271,0.295,0.393,0.418c0.049,0.049,0.074,0.098,0.123,0.123
				c0.098,0.123,0.221,0.221,0.32,0.32c0.049,0.074,0.148,0.148,0.221,0.197c0.344,0.344,0.713,0.664,1.131,0.934
				c0.148,0.123,0.32,0.246,0.467,0.344c0.049,0.025,0.098,0.074,0.147,0.098c0.172,0.123,0.344,0.221,0.517,0.295
				c0.025,0.025,0.025,0.049,0.049,0.049c0.172,0.098,0.32,0.197,0.492,0.271c0.098,0.049,0.221,0.098,0.295,0.147
				c0.049,0.025,0.123,0.049,0.172,0.074c0.147,0.074,0.295,0.148,0.443,0.197c0.025,0,0.025,0.025,0.025,0.025
				c0.197,0.074,0.369,0.147,0.566,0.221c0.172,0.049,0.344,0.123,0.516,0.172c0.271,0.074,0.516,0.147,0.787,0.221
				c0.147,0.049,0.32,0.074,0.492,0.123c0.074,0,0.123,0.025,0.172,0.025c0.172,0.025,0.369,0.074,0.541,0.098l0.59,0.074
				c0.197,0.025,0.393,0.049,0.615,0.049c0.074,0,0.172,0,0.246,0.025h0.541c0.27,0,0.516,0,0.787-0.025l0.541-0.049
				c0.221,0,0.443-0.049,0.664-0.074c0.148-0.025,0.32-0.049,0.467-0.074c0.098-0.025,0.172-0.049,0.246-0.049
				c0.369-0.074,0.689-0.172,1.057-0.271c0.123-0.049,0.27-0.098,0.418-0.147c0.049,0,0.098-0.025,0.123-0.049
				c0.098-0.025,0.221-0.049,0.32-0.123c0.123-0.025,0.246-0.074,0.344-0.123c0.049-0.025,0.099-0.049,0.148-0.074
				c0.148-0.049,0.27-0.098,0.418-0.172c0.221-0.098,0.418-0.221,0.639-0.32c0.148-0.074,0.295-0.172,0.443-0.27
				c0.148-0.074,0.271-0.148,0.394-0.221c0.148-0.098,0.246-0.172,0.369-0.271c0.098-0.049,0.197-0.123,0.295-0.197
				c0.418-0.295,0.836-0.639,1.18-0.984c0.123-0.098,0.221-0.197,0.344-0.32l0.074-0.049c0.098-0.123,0.221-0.246,0.32-0.344
				c0.049-0.049,0.074-0.074,0.098-0.123c0.098-0.123,0.221-0.221,0.295-0.344c0.271-0.32,0.541-0.664,0.787-1.008
				c0.074-0.098,0.147-0.221,0.221-0.344c0.074-0.123,0.147-0.246,0.221-0.393c0.074-0.098,0.148-0.197,0.197-0.32
				c0.025-0.049,0.049-0.098,0.098-0.148c0.074-0.172,0.148-0.344,0.246-0.516c0.049-0.098,0.098-0.172,0.123-0.27
				c0.099-0.246,0.197-0.467,0.295-0.689c0.074-0.197,0.147-0.393,0.221-0.615c0.049-0.148,0.098-0.295,0.123-0.443
				c0.492-0.049,1.008-0.123,1.5-0.221c0.959-0.123,1.894-0.32,2.853-0.59c1.131-0.27,2.287-0.615,3.418-1.008
				c3.271-1.18,6.295-2.779,8.976-4.771C282.904,222.533,283.322,222.214,283.74,221.87z"/>
			<g>
				<path style="fill:#403D39;" d="M284.139,221.538v4.053c0,3.716-0.552,6.962-1.629,9.722c-0.054,0.148-0.121,0.296-0.189,0.444
					c-0.606,1.454-1.414,2.666-2.357,3.703c-0.04,0.054-0.081,0.108-0.121,0.162c-5.359,7.123-18.919,8.052-28.385,3.757
					c-0.539-0.242-1.037-0.498-1.522-0.768c-0.081-0.04-0.148-0.081-0.215-0.121c-0.431-0.242-0.848-0.498-1.239-0.768
					c-0.081-0.054-0.162-0.108-0.242-0.162c-3.07-2.101-4.834-4.444-4.834-4.484c-0.66-0.97-1.239-2.007-1.724-3.151
					c-0.067-0.148-0.135-0.296-0.189-0.444c-1.077-2.76-1.629-6.005-1.629-9.722v-60.541l0.269,0.04l1.98,0.337v60.662
					c0,0.579,0.027,1.131,0.067,1.656c0.471,7.312,3.959,10.288,3.959,10.288s5.023,5.992,15.027,7.177
					c8.281,0.983,18.569-1.468,20.521-14.314c0.121-0.916,0.202-1.899,0.202-2.976v-2.855c0.188-0.135,0.377-0.269,0.566-0.404
					c0.444-0.296,0.862-0.62,1.279-0.956C283.87,221.766,284.005,221.659,284.139,221.538z"/>
				<path style="opacity:0.3;fill:#FFFFFF;" d="M284.139,221.538v4.053c0,3.716-0.552,6.962-1.629,9.722
					c-0.054,0.148-0.121,0.296-0.189,0.444c-0.606,1.454-1.414,2.666-2.357,3.703c-0.04,0.054-0.081,0.108-0.121,0.162
					c-5.359,7.123-18.919,8.052-28.385,3.757c-0.539-0.242-1.037-0.498-1.522-0.768c-0.081-0.04-0.148-0.081-0.215-0.121
					c-0.431-0.242-0.848-0.498-1.239-0.768c-0.081-0.054-0.162-0.108-0.242-0.162c-3.07-2.101-4.834-4.444-4.834-4.484
					c-0.66-0.97-1.239-2.007-1.724-3.151c-0.067-0.148-0.135-0.296-0.189-0.444c-1.077-2.76-1.629-6.005-1.629-9.722v-60.541
					l0.269,0.04l1.98,0.337v60.662c0,0.579,0.027,1.131,0.067,1.656c0.471,7.312,3.959,10.288,3.959,10.288
					s5.023,5.992,15.027,7.177c8.281,0.983,18.569-1.468,20.521-14.314c0.121-0.916,0.202-1.899,0.202-2.976v-2.855
					c0.188-0.135,0.377-0.269,0.566-0.404c0.444-0.296,0.862-0.62,1.279-0.956C283.87,221.766,284.005,221.659,284.139,221.538z"/>
			</g>
			<path style="fill:none;" d="M282.456,222.83v3.299c0,0.337,0,0.687-0.013,1.023c-0.081,2.855-0.579,5.561-1.549,7.945
				c-20.131,10.463-29.974,5.804-34.364,1.374c0.081,0.054,0.162,0.094,0.256,0.135c0.014,0.014,0.04,0.014,0.04,0.014
				c0.148,0.108,0.323,0.202,0.498,0.269c0.094,0.054,0.215,0.108,0.296,0.148c0.04,0.027,0.094,0.081,0.148,0.081
				c0.148,0.067,0.283,0.148,0.431,0.202c0.027,0,0.027,0.013,0.027,0.013c0.175,0.081,0.377,0.121,0.539,0.202
				c0.027,0,0.027,0.027,0.027,0.027c0.175,0.04,0.323,0.121,0.498,0.175c0.242,0.067,0.485,0.148,0.754,0.188
				c0.148,0.054,0.323,0.094,0.498,0.121c0.054,0,0.094,0.027,0.148,0.027c0.202,0.027,0.337,0.081,0.539,0.094
				c0.175,0.027,0.364,0.054,0.539,0.081c0.229,0.027,0.417,0.054,0.646,0.054c0.067,0,0.148,0,0.242,0.014h0.512
				c0.256,0,0.525,0,0.767-0.014l0.539-0.054c0.202,0,0.417-0.054,0.646-0.081c0.121-0.014,0.31-0.04,0.458-0.067
				c0.081-0.027,0.175-0.054,0.256-0.054c0.337-0.067,0.66-0.161,0.996-0.269c0.135-0.027,0.283-0.067,0.417-0.121
				c0.027-0.027,0.081-0.027,0.135-0.054c0.094-0.014,0.188-0.067,0.31-0.121c0.108-0.027,0.229-0.067,0.323-0.121
				c0.054,0,0.094-0.04,0.148-0.04c0.148-0.054,0.269-0.135,0.417-0.202c0.202-0.094,0.417-0.229,0.62-0.323
				c0.148-0.067,0.296-0.148,0.444-0.242c0.121-0.081,0.269-0.148,0.364-0.229c0.121-0.094,0.242-0.162,0.363-0.269
				c0.108-0.04,0.202-0.094,0.296-0.162c0.404-0.296,0.794-0.619,1.158-0.97l0.323-0.31l0.067-0.054
				c0.108-0.094,0.175-0.215,0.269-0.269c0.027-0.054,0.027-0.054,0.054-0.081c0.027-0.04,0.081-0.067,0.094-0.121
				c0.108-0.121,0.202-0.215,0.283-0.31c0.283-0.323,0.539-0.673,0.754-1.01c0.081-0.108,0.148-0.229,0.229-0.323
				c0.094-0.121,0.148-0.242,0.242-0.391c0.04-0.108,0.094-0.202,0.175-0.296c0.013-0.054,0.04-0.108,0.067-0.175
				c0.094-0.148,0.175-0.323,0.269-0.471c0.054-0.094,0.094-0.189,0.121-0.296c0.081-0.215,0.202-0.417,0.269-0.66
				c0.081-0.175,0.135-0.337,0.175-0.539c0.108-0.054,0.229-0.121,0.323-0.175c0.364-0.215,0.714-0.417,1.077-0.619
				c-0.296,0.202-0.592,0.377-0.875,0.552c0,0,0,0.013-0.027,0.04c0.485-0.04,1.01-0.121,1.495-0.215
				c0.956-0.121,1.899-0.323,2.855-0.592c1.131-0.269,2.289-0.619,3.42-1.01C276.76,226.425,279.777,224.823,282.456,222.83z"/>
			<g>
				<g style="opacity:0.2;">
					<path style="fill:#F2F2F2;" d="M238.403,221.321c0,0-13.373-10.481-12.365-26.32l-0.098-25.03c0-1.722,1.396-3.119,3.119-3.119
						h6.226c1.722,0,3.119,1.396,3.119,3.119v21.169V221.321z"/>
				</g>
				<g style="opacity:0.3;">
					<path style="fill:#F2F2F2;" d="M238.403,204.656c0,0-9.281-7.274-8.581-18.266l-0.068-17.371c0-1.195,0.969-2.164,2.164-2.164
						h4.321c1.195,0,2.164,0.969,2.164,2.164v14.692V204.656z"/>
				</g>
				<path style="fill:#252422;" d="M247.36,143.749c4.485,9.03,0.801,19.986-8.229,24.471c-9.03,4.485-19.986,0.801-24.471-8.229
					c-4.485-9.03-0.801-19.986,8.229-24.471C231.919,131.035,242.875,134.719,247.36,143.749z"/>
				<path style="opacity:0.2;fill:#F2F2F2;" d="M242.715,145.549c3.863,7.777,0.69,17.212-7.087,21.074
					c-7.776,3.863-17.212,0.69-21.074-7.087c-3.863-7.777-0.69-17.212,7.087-21.074C229.418,134.6,238.853,137.773,242.715,145.549z
					"/>
				<path style="opacity:0.2;fill:#F2F2F2;" d="M235.926,153.43c0,5.25-4.256,9.506-9.505,9.506c-5.25,0-9.506-4.256-9.506-9.506
					c0-5.25,4.256-9.505,9.506-9.505C231.67,143.924,235.926,148.18,235.926,153.43z"/>
				<path style="opacity:0.2;fill:#F2F2F2;" d="M235.9,152.852c-0.139,0-0.278-0.008-0.425-0.016l-3.187-0.212
					c-2.869-0.196-5.035-2.673-4.847-5.541l0.172-2.55c0.008-0.18,0.033-0.352,0.065-0.523
					C232.14,144.597,235.63,148.292,235.9,152.852z"/>
				<path style="opacity:0.3;fill:#F2F2F2;" d="M229.307,147.512l-0.051,0.76c-0.057,0.855,0.589,1.595,1.444,1.652l0.95,0.064
					c1.147,0.077,2.014-1.093,1.539-2.139c-0.275-0.604-0.771-1.206-1.65-1.628C230.545,145.744,229.381,146.413,229.307,147.512z"
					/>
				<path style="fill:#252422;" d="M230.235,153.9c0,2.93-2.251,5.323-5.109,5.566c-0.152,0.01-0.314,0.02-0.477,0.02
					c-3.082,0-5.586-2.494-5.586-5.586c0-3.082,2.504-5.576,5.586-5.576c0.162,0,0.324,0.01,0.477,0.02
					C227.984,148.588,230.235,150.98,230.235,153.9z"/>
				<path style="fill:#2F2F2F;" d="M230.235,153.9c0,2.93-2.251,5.323-5.109,5.566c-2.869-0.233-5.12-2.636-5.12-5.566
					c0-2.92,2.251-5.322,5.12-5.555C227.984,148.588,230.235,150.98,230.235,153.9z"/>
			</g>
			<g>
				<circle style="opacity:0.4;fill:#F2F2F2;" cx="225.029" cy="153.841" r="3.388"/>
			</g>
			<g>
				<circle style="opacity:0.4;fill:#F2F2F2;" cx="226.637" cy="152.902" r="1.351"/>
			</g>
		</g>
		<g>
			<path style="opacity:0.2;fill:#F2F2F2;" d="M244.364,152.396l-6.901-0.138c-0.293-5.047-4.158-9.136-9.101-9.791v-5.642
				c5.875-0.104,11.568,3.114,14.355,8.722C243.803,147.755,244.347,150.084,244.364,152.396z"/>
			<path style="opacity:0.3;fill:#F2F2F2;" d="M240.366,144.684c-0.495,0.763-1.376,1.274-2.382,1.203l-1.588-0.11
				c-1.431-0.094-2.5-1.329-2.414-2.76l0.086-1.266c0.071-1.03,0.708-1.832,1.549-2.194c0.134-0.055,0.417-0.118,0.417-0.118
				c0.947-0.077,4.077,2.664,4.411,3.624C240.696,143.576,240.68,144.197,240.366,144.684z"/>
		</g>
		<g>
			<g>
				<path style="fill:#EB5E28;" d="M333.821,135.169H306.56c-1.657,0-3-1.343-3-3c0-1.657,1.343-3,3-3h27.261c1.657,0,3,1.343,3,3
					C336.821,133.825,335.478,135.169,333.821,135.169z"/>
			</g>
			<g>
				<path style="fill:#EB5E28;" d="M297.305,118.332c-0.768,0-1.535-0.292-2.121-0.878c-1.172-1.171-1.172-3.071-0.001-4.243
					l20.888-20.901c1.172-1.173,3.071-1.172,4.243-0.001c1.172,1.171,1.172,3.071,0.001,4.243l-20.888,20.901
					C298.841,118.039,298.072,118.332,297.305,118.332z"/>
			</g>
		</g>
		<g>
			<g style="opacity:0.2;">
				<path style="fill:#F2F2F2;" d="M255.948,291.921c0,0-9.196-5.942-8.502-15.347l-0.067-29.444h6.134
					c1.65-0.138,2.436,0.262,2.436,1.285v18.052V291.921z"/>
			</g>
		</g>
		<g>
			<g style="opacity:0.2;">
				<path style="fill:#F2F2F2;" d="M255.948,274.492c0,0-6.382-4.319-5.901-10.847L250,248.415c0-0.71,0-1.285,0-1.285h4.459
					c0.822,0,1.488,0.575,1.488,1.285v13.639V274.492z"/>
			</g>
		</g>
		<path style="opacity:0.2;fill:#F2F2F2;" d="M216.199,131.125c0,0-15.808,3.622-26.931-6.638l-5.979-4.807
			c0.121-1.4,0.323-2.801,0.619-4.188c0.592-2.828,1.522-5.602,2.814-8.254l1.602,1.293l15.512,12.577L216.199,131.125z"/>
		<path style="opacity:0.3;fill:#F2F2F2;" d="M203.838,121.107c0,0-10.974,2.518-18.69-4.619l-1.239-0.996
			c0.592-2.828,1.522-5.602,2.814-8.254l1.602,1.293L203.838,121.107z"/>
	</g>
	<g id="Text">
		<g>
			<g>
				<path style="fill:#CCC5B9;" d="M162.093,420.082c0.012-9.663,0.019-14.495,0.031-24.158c-2.043,0.036-3.064,0.055-5.106,0.094
					c0-1.125,0-1.687,0-2.812c5.308-0.009,7.962-0.013,13.27-0.021c-0.003,1.04-0.005,1.56-0.008,2.601
					c-2.043,0.033-3.064,0.05-5.107,0.085c-0.019,9.49-0.028,14.236-0.047,23.726C163.912,419.788,163.306,419.885,162.093,420.082z
					"/>
				<path style="fill:#CCC5B9;" d="M175.915,413.016c-0.435,2.048-0.652,3.078-1.086,5.15c-1.137,0.157-1.706,0.237-2.842,0.4
					c2.149-10.457,3.229-15.525,5.394-25.391c1.79-0.002,2.686-0.003,4.476-0.006c2.078,9.633,3.114,14.313,5.186,23.454
					c-1.234,0.141-1.852,0.214-3.085,0.363c-0.418-1.868-0.627-2.806-1.045-4.694C180.112,412.567,178.713,412.712,175.915,413.016z
					 M176.32,410.6c2.466-0.235,3.7-0.348,6.168-0.563c-1.223-5.432-1.835-8.189-3.061-13.798
					C178.182,401.891,177.561,404.762,176.32,410.6z"/>
				<path style="fill:#CCC5B9;" d="M203.737,398.419c-0.004,0.749-0.006,1.123-0.011,1.872c-1.173,0.032-1.759,0.049-2.932,0.084
					c0.005-0.808,0.007-1.212,0.012-2.019c0.011-1.987-0.972-3.178-3.23-3.157c-2.219,0.021-3.256,1.264-3.268,3.307
					c-0.027,4.798-0.041,7.198-0.068,11.996c-0.012,2.043,1.011,3.177,3.231,2.986c2.259-0.194,3.257-1.469,3.268-3.458
					c0.01-1.767,0.015-2.65,0.025-4.417c-1.142,0.057-1.712,0.087-2.854,0.148c0.005-0.894,0.008-1.34,0.013-2.234
					c2.314-0.102,3.471-0.15,5.786-0.24c-0.015,2.571-0.022,3.856-0.036,6.426c-0.019,3.307-2.015,5.643-6.295,6.053
					c-4.24,0.406-6.206-1.668-6.187-5.152c0.026-4.76,0.039-7.139,0.066-11.899c0.019-3.484,2.013-5.785,6.251-5.785
					C201.788,392.929,203.756,395.113,203.737,398.419z"/>
				<path style="fill:#CCC5B9;" d="M208.567,414.599c0.047-8.582,0.07-12.874,0.117-21.456c1.236-0.001,1.854-0.001,3.089-0.002
					c-0.04,7.634-0.06,11.451-0.1,19.085c3.175-0.193,4.764-0.279,7.94-0.43c-0.004,0.843-0.006,1.264-0.009,2.106
					C215.188,414.136,212.979,414.275,208.567,414.599z"/>
				<path style="fill:#CCC5B9;" d="M227.103,393.133c-0.029,8.172-0.043,12.258-0.072,20.43c-1.24,0.048-1.859,0.074-3.099,0.129
					c0.033-8.223,0.049-12.335,0.081-20.558C225.249,393.134,225.867,393.134,227.103,393.133z"/>
				<path style="fill:#CCC5B9;" d="M234.94,413.316c-1.113,0.026-1.669,0.041-2.781,0.074c0.022-8.103,0.033-12.155,0.055-20.258
					c1.568,0,2.353-0.001,3.921-0.001c2.554,5.828,3.835,8.717,6.403,14.5c0.005-5.8,0.008-8.701,0.013-14.501
					c1.093,0,1.64,0,2.733,0c-0.003,8.017-0.005,12.025-0.009,20.041c-1.288,0.006-1.932,0.01-3.22,0.024
					c-2.84-6.46-4.255-9.684-7.078-16.199C234.962,403.524,234.955,406.788,234.94,413.316z"/>
				<path style="fill:#CCC5B9;" d="M260.317,402.071c0.002,0.807,0.003,1.211,0.005,2.018c-2.714-0.036-4.072-0.049-6.786-0.065
					c0.003,2.855,0.005,4.283,0.008,7.139c3.338,0.034,5.007,0.062,8.344,0.143c0.002,0.821,0.003,1.231,0.005,2.052
					c-4.578-0.123-6.868-0.16-11.447-0.184c-0.004-8.018-0.006-12.026-0.01-20.044c4.563,0,6.844,0.001,11.407,0.002
					c0.002,0.821,0.003,1.231,0.005,2.052c-3.328-0.01-4.992-0.013-8.321-0.018c0.003,2.741,0.004,4.112,0.007,6.853
					C256.247,402.031,257.604,402.042,260.317,402.071z"/>
				<path style="fill:#CCC5B9;" d="M277.938,404.631c0.018,3.761,0.027,5.642,0.045,9.403c-1.239-0.071-1.858-0.104-3.097-0.168
					c-0.037-8.292-0.055-12.438-0.091-20.73c1.236,0.001,1.853,0.001,3.089,0.002c0.018,3.761,0.027,5.642,0.044,9.403
					c2.729,0.071,4.093,0.111,6.821,0.198c-0.02-3.839-0.031-5.758-0.051-9.597c1.236,0.001,1.854,0.001,3.09,0.002
					c0.047,8.62,0.071,12.93,0.119,21.55c-1.238-0.094-1.857-0.139-3.095-0.226c-0.021-3.839-0.031-5.758-0.051-9.597
					C282.032,404.766,280.668,404.717,277.938,404.631z"/>
				<path style="fill:#CCC5B9;" d="M302.863,403.296c0.005,0.916,0.008,1.373,0.013,2.289c-2.709-0.155-4.064-0.228-6.775-0.364
					c0.018,3.164,0.027,4.745,0.045,7.909c3.33,0.275,4.994,0.424,8.32,0.745c0.005,0.935,0.008,1.403,0.013,2.338
					c-4.561-0.49-6.843-0.711-11.411-1.103c-0.05-8.785-0.075-13.178-0.125-21.963c4.564,0.004,6.846,0.006,11.409,0.011
					c0.005,0.935,0.008,1.403,0.013,2.338c-3.328-0.039-4.992-0.058-8.32-0.091c0.017,3.037,0.026,4.555,0.043,7.592
					C298.798,403.11,300.153,403.169,302.863,403.296z"/>
				<path style="fill:#CCC5B9;" d="M315.365,393.172c4.358,0.006,6.187,2.022,6.201,5.759c0.003,0.82,0.004,1.229,0.007,2.049
					c0.01,2.768-1.051,4.426-3.422,4.931c2.534,0.847,3.49,2.801,3.499,5.497c0.006,1.568,0.008,2.352,0.014,3.919
					c0.004,1.114,0.047,2.159,0.563,3.098c-1.247-0.177-1.871-0.263-3.118-0.432c-0.358-0.757-0.519-1.412-0.525-3.075
					c-0.006-1.556-0.01-2.333-0.016-3.889c-0.011-2.793-1.478-3.792-4.05-3.98c-0.87-0.064-1.306-0.095-2.176-0.157
					c0.02,4.093,0.03,6.14,0.05,10.233c-1.233-0.151-1.85-0.225-3.084-0.369c-0.049-9.437-0.073-14.155-0.122-23.591
					C311.658,393.168,312.893,393.169,315.365,393.172z M314.626,404.599c2.453,0.148,3.914-0.463,3.903-3.15
					c-0.004-0.948-0.006-1.421-0.01-2.369c-0.009-2.227-0.925-3.408-3.222-3.44c-1.204-0.017-1.806-0.025-3.01-0.042
					c0.017,3.546,0.026,5.319,0.043,8.864C313.248,404.516,313.707,404.544,314.626,404.599z"/>
				<path style="fill:#CCC5B9;" d="M336.646,405.368c0,1.099,0.001,1.648,0.001,2.746c-2.7-0.25-4.05-0.37-6.752-0.601
					c0.008,3.753,0.011,5.63,0.019,9.384c3.311,0.466,4.966,0.711,8.271,1.225c0,1.125,0,1.687,0,2.812
					c-4.53-0.783-6.798-1.149-11.34-1.834c-0.027-10.365-0.041-15.547-0.069-25.912c4.564,0.007,6.845,0.01,11.409,0.018
					c0,1.125,0,1.687,0,2.812c-3.325-0.063-4.988-0.093-8.313-0.15c0.007,3.603,0.011,5.404,0.018,9.007
					C332.594,405.065,333.945,405.164,336.646,405.368z"/>
			</g>
		</g>
		<g>
			<g>
				<path style="fill:#403D39;" d="M141.666,320.332c9.533,1.463,13.633,7.239,13.654,15.854c0.007,2.731,0.01,4.096,0.016,6.827
					c0.022,9.02-4.493,13.513-14.142,12.919c-2.399-0.148-3.598-0.224-5.997-0.379c0.007,9.438,0.011,14.158,0.018,23.596
					c-2.718-0.004-4.077-0.007-6.794-0.011c0-20.322,0-40.644,0-60.966C133.713,319.086,136.362,319.518,141.666,320.332z
					 M141.186,350.041c5.039,0.387,7.469-1.676,7.458-7.208c-0.006-3.072-0.009-4.608-0.015-7.681
					c-0.01-5.285-2.013-8.172-6.955-8.854c-2.601-0.359-3.901-0.544-6.5-0.925c0.007,9.678,0.011,14.517,0.019,24.194
					C137.59,349.762,138.789,349.857,141.186,350.041z"/>
				<path style="fill:#403D39;" d="M162.532,336.728c-0.024-8.556,4.564-13.452,13.881-12.477
					c9.405,0.984,14.046,6.562,14.072,14.679c0.034,10.985,0.052,16.478,0.086,27.464c0.025,8.042-4.575,13.352-13.983,13.352
					c-9.32,0-13.952-5.597-13.976-14.073C162.586,356.025,162.559,346.377,162.532,336.728z M169.318,366.187
					c0.015,5.045,2.375,7.991,7.253,8.041c4.965,0.052,7.221-2.767,7.205-7.677c-0.03-9.462-0.06-18.923-0.09-28.385
					c-0.015-4.833-2.291-7.928-7.255-8.396c-4.876-0.459-7.215,2.281-7.2,7.248C169.26,346.741,169.289,356.464,169.318,366.187z"/>
				<path style="fill:#403D39;" d="M213.393,327.659c9.518,0.489,13.896,5.386,13.908,13.254c0.016,10.288,0.024,15.432,0.04,25.72
					c0.012,7.796-4.334,12.603-13.826,12.598c-5.712-0.003-8.57-0.005-14.284-0.009c-0.051-17.481-0.103-34.962-0.154-52.443
					C204.801,327.189,207.666,327.365,213.393,327.659z M213.416,374c4.878,0.028,7.225-2.526,7.216-7.211
					c-0.021-10.541-0.031-15.812-0.052-26.354c-0.009-4.685-2.372-7.323-7.348-7.554c-2.933-0.136-4.4-0.211-7.332-0.374
					c0.037,13.815,0.075,27.631,0.112,41.446C208.973,373.974,210.454,373.983,213.416,374z"/>
				<path style="fill:#403D39;" d="M262.837,340.736c-0.002,1.827-0.003,2.741-0.004,4.568c-2.583,0.031-3.875,0.043-6.458,0.059
					c0.001-1.94,0.001-2.91,0.002-4.849c0.002-4.561-2.181-7.281-7.162-7.286c-4.892-0.005-7.163,2.712-7.16,7.273
					c0.006,10.716,0.009,16.075,0.015,26.791c0.003,4.562,2.269,7.317,7.147,7.318c4.966,0.001,7.146-2.753,7.148-7.314
					c0.001-2.635,0.002-3.952,0.003-6.587c2.58-0.009,3.871-0.015,6.451-0.032c-0.002,2.523-0.003,3.785-0.006,6.308
					c-0.007,7.686-4.364,12.762-13.769,12.762c-9.317,0-13.677-5.079-13.685-12.771c-0.011-10.507-0.016-15.76-0.027-26.267
					c-0.008-7.691,4.357-12.632,13.709-12.619C258.48,328.103,262.844,333.051,262.837,340.736z"/>
				<path style="fill:#403D39;" d="M278.057,368.924c-0.949,4.132-1.423,6.194-2.371,10.312c-2.507,0.001-3.761,0.001-6.268,0.002
					c3.941-17.104,7.869-34.21,11.775-51.322c3.948-0.173,5.92-0.273,9.867-0.5c3.892,17.258,7.74,34.526,11.54,51.805
					c-2.717,0.002-4.076,0.003-6.794,0.005c-0.93-4.198-1.395-6.29-2.326-10.465C287.309,368.84,284.226,368.873,278.057,368.924z
					 M278.938,364.013c5.439-0.067,8.157-0.109,13.597-0.208c-2.253-9.879-4.525-19.754-6.816-29.624
					C283.471,344.128,281.209,354.072,278.938,364.013z"/>
				<path style="fill:#403D39;" d="M336.598,336.73c-0.002,0.607-0.003,0.91-0.004,1.517c-2.575,0.231-3.862,0.343-6.439,0.557
					c0.002-0.724,0.003-1.086,0.005-1.811c0.015-4.961-2.063-7.647-6.939-7.19c-4.876,0.457-7.44,4-6.994,8.216
					c1.214,11.473,20.34,13.559,20.377,27.758c0.022,8.416-4.481,13.969-13.802,13.969c-9.319,0-13.659-5.233-13.633-13.271
					c0.004-1.213,0.006-1.82,0.01-3.033c2.544-0.065,3.816-0.099,6.359-0.17c-0.004,1.349-0.006,2.023-0.011,3.371
					c-0.015,4.828,2.242,7.643,7.119,7.593c4.877-0.05,7.447-3.312,7.167-7.947c-0.741-12.239-19.916-13.934-20.295-27.435
					c-0.223-7.934,4.404-13.599,13.548-14.549C332.296,323.347,336.622,328.27,336.598,336.73z"/>
				<path style="fill:#403D39;" d="M353.55,379.166c0.031-17.412,0.063-34.824,0.094-52.235c-4.477,0.591-6.718,0.87-11.202,1.397
					c0.006-2.296,0.009-3.444,0.015-5.74c9.728-1.249,19.46-2.724,29.121-4.416c0,2.473,0,3.71,0,6.183
					c-4.464,0.693-6.698,1.024-11.171,1.653c-0.021,17.716-0.043,35.432-0.064,53.147
					C357.626,379.16,356.267,379.162,353.55,379.166z"/>
			</g>
		</g>
	</g>
	<g>
		<path style="fill:#EB5E28;" d="M280.441,110.15c-1.657,0-3-1.343-3-3V78.789c0-1.657,1.343-3,3-3c1.657,0,3,1.343,3,3v28.362
			C283.441,108.807,282.099,110.15,280.441,110.15z"/>
	</g>
</g>
</svg>
