<svg width="106" height="99" viewBox="0 0 106 99" fill="none" xmlns="http://www.w3.org/2000/svg">
<path d="M105.936 29.1001V75.0867C105.936 80.4328 101.602 84.7666 96.2563 84.7666H52.1838L34.5621 97.8305C33.5181 98.6044 32.0379 97.8592 32.0379 96.5596V84.7666H27.2247C21.8786 84.7666 17.5448 80.4328 17.5448 75.0867V29.1001C17.5448 23.754 21.8786 19.4202 29.8996 19.4202H98.9311C101.602 19.4202 105.936 23.754 105.936 29.1001Z" fill="#365F63"/>
<g opacity="0.3">
<path d="M67.8273 25.8179H66.153C65.1897 25.8179 64.4082 25.0364 64.4082 24.0731C64.4082 23.1099 65.1897 22.3284 66.153 22.3284H67.8273C68.7905 22.3284 69.572 23.1099 69.572 24.0731C69.572 25.0364 68.7905 25.8179 67.8273 25.8179Z" fill="white"/>
<path d="M91.127 25.8179H75.2014C74.2382 25.8179 73.4567 25.0364 73.4567 24.0731C73.4567 23.1099 74.2382 22.3284 75.2014 22.3284H91.127C92.0903 22.3284 92.8718 23.1099 92.8718 24.0731C92.8718 25.0364 92.0903 25.8179 91.127 25.8179Z" fill="white"/>
</g>
<g opacity="0.3">
<path d="M22.3199 69.1138C21.3567 69.1138 20.5752 68.3323 20.5752 67.369V56.6571C20.5752 55.6939 21.3567 54.9124 22.3199 54.9124C23.2832 54.9124 24.0647 55.6939 24.0647 56.6571V67.369C24.0647 68.3323 23.2832 69.1138 22.3199 69.1138Z" fill="white"/>
<path d="M22.3198 51.5322C21.3566 51.5322 20.5751 50.7507 20.5751 49.7875V47.9723C20.5751 47.009 21.3566 46.2275 22.3198 46.2275C23.2831 46.2275 24.0646 47.009 24.0646 47.9723V49.7875C24.0646 50.7507 23.2831 51.5322 22.3198 51.5322Z" fill="white"/>
</g>
<path d="M105.936 29.0976V75.0892C105.936 80.4338 101.604 84.7665 96.259 84.7665H52.184L34.5736 97.8407C33.5269 98.6083 32.038 97.864 32.038 96.5611V93.3973L47.3837 82.0096C47.9026 81.6246 48.5316 81.4167 49.1777 81.4167H92.2575C97.6023 81.4167 101.935 77.0839 101.935 71.7391V25.7479C101.935 23.7237 101.307 21.8395 100.237 20.2808C103.61 21.7929 105.936 25.1663 105.936 29.0976Z" fill="#2A4A4D"/>
<path d="M26.8496 69.5921V34.5951C26.8496 31.3536 29.4773 28.7258 35.3937 28.7258H91.2501C93.8904 28.8073 96.632 31.3536 96.632 34.5951V69.5921C96.632 72.8336 94.0043 75.4614 90.7628 75.4614H32.7189C29.4773 75.4614 26.8496 72.8336 26.8496 69.5921Z" fill="white"/>
<path d="M96.6306 34.5999V69.588C96.6306 72.8446 94.0018 75.4503 90.7682 75.4503H32.7121C30.0834 75.4503 27.8734 73.7522 27.1057 71.356C27.4547 71.4258 27.8268 71.4488 28.1991 71.4488H86.2318C89.4655 71.4488 92.0942 68.8201 92.0942 65.5634V30.5754C92.0942 29.9705 92.0011 29.3657 91.8384 28.8074C94.5601 29.3191 96.6306 31.7153 96.6306 34.5999Z" fill="#E4E3FF"/>
<path d="M76.8135 50.3977C76.8135 58.7119 70.0676 65.4581 61.7285 65.4581C53.4143 65.4581 46.6684 58.7119 46.6684 50.3977C46.6684 42.0586 53.4143 35.3127 61.7285 35.3127C70.0676 35.3127 76.8135 42.0586 76.8135 50.3977Z" fill="#ED9231"/>
<g opacity="0.3">
<path d="M50.5918 50.9193C50.5814 50.9193 50.5683 50.9193 50.5578 50.9193C50.0406 50.901 49.6384 50.4674 49.6567 49.9502C49.7925 46.2174 51.5975 42.8138 54.6015 40.6117C55.0168 40.3035 55.6045 40.3923 55.9102 40.8128C56.2158 41.2308 56.1244 41.8159 55.709 42.1215C53.1674 43.984 51.6445 46.8626 51.527 50.0181C51.5087 50.5222 51.0933 50.9193 50.5918 50.9193Z" fill="white"/>
</g>
<g opacity="0.3">
<path d="M58.4596 39.6611C58.3525 39.157 58.6764 38.6606 59.1831 38.5509C59.9198 38.3942 60.6799 38.3054 61.4427 38.2871C61.9416 38.3916 62.3883 38.6815 62.4013 39.1988C62.4144 39.716 62.0069 40.1444 61.4897 40.1574C60.8445 40.1757 60.1967 40.2515 59.5697 40.3847C59.061 40.4864 58.5673 40.1667 58.4596 39.6611Z" fill="white"/>
</g>
<path d="M76.8134 50.3979C76.8134 58.712 70.0675 65.4582 61.7284 65.4582C56.6753 65.4582 52.1945 62.944 49.456 59.1104C52.02 61.1269 55.2563 62.3466 58.7659 62.3466C67.1053 62.3466 73.8512 55.6004 73.8512 47.2862C73.8512 44.0254 72.8059 41.0135 71.0632 38.5491C74.5732 41.3119 76.8134 45.5934 76.8134 50.3979Z" fill="#D5832C"/>
<path d="M67.8713 52.4687L61.2676 57.1213C59.5793 58.3107 57.2516 57.1033 57.2516 55.0381V45.7327C57.2516 43.6675 59.5794 42.46 61.2676 43.6495L67.8713 48.3023C69.3121 49.3174 69.312 51.4536 67.8713 52.4687Z" fill="white"/>
<path d="M67.8555 52.4606L61.2849 57.1208C59.7188 58.2283 57.5797 57.2733 57.274 55.478C58.0763 55.8987 59.0695 55.9369 59.9098 55.3256L66.5183 50.6648C67.3971 50.0539 67.7407 49.0225 67.5498 48.1057L67.8555 48.2969C69.3071 49.3284 69.3071 51.4673 67.8555 52.4606Z" fill="#E4E3FF"/>
<path d="M47.6806 2.80127L53.8089 17.2771C54.5905 19.1234 54.0382 21.2416 52.469 22.4896C48.9089 25.3209 43.4895 30.618 40.8368 34.4977C39.648 36.2364 37.5167 37.1375 35.441 36.7797C30.8152 35.9822 23.2544 36.1819 18.7494 36.7651C16.7615 37.0225 14.8568 35.9449 14.0753 34.099L7.94678 19.6224L47.6806 2.80127Z" fill="#474646"/>
<path d="M47.68 2.81055L53.802 17.2713C54.591 19.135 54.0333 21.2347 52.4737 22.479C48.9193 25.3189 43.4872 30.6231 40.8429 34.4964C39.6544 36.2234 37.508 37.1321 35.4411 36.7833C30.8195 35.9859 23.2537 36.1844 18.7406 36.7598C17.5728 36.8929 16.4203 36.6018 15.522 35.9253C16.0762 36.052 16.6812 36.1015 17.294 36.037C21.7971 35.438 29.3729 35.2631 33.9945 36.0605C36.0517 36.3856 38.1981 35.4769 39.3963 33.7737C42.0406 29.9003 47.4627 24.5725 51.0271 21.7562C52.5867 20.5119 53.1444 18.4123 52.3554 16.5486L46.7128 3.22003L47.68 2.81055Z" fill="#2D2C2C"/>
<path d="M49.6636 7.47559L50.2767 8.92364L33.2529 21.9335C32.8126 22.28 32.2808 22.5052 31.7256 22.5801L10.5465 25.7433L9.93347 24.2952L31.1126 21.1321C31.663 21.0459 32.1948 20.8207 32.6399 20.4855L49.6636 7.47559Z" fill="#2D2C2C"/>
<g opacity="0.2">
<path d="M18.6436 34.4879C18.1751 34.6862 17.6342 34.4671 17.4359 33.9987L16.6343 32.1052C16.436 31.6368 16.6552 31.0958 17.1236 30.8975C17.592 30.6992 18.1329 30.9184 18.3312 31.3868L19.1328 33.2803C19.3311 33.7487 19.112 34.2896 18.6436 34.4879Z" fill="white"/>
</g>
<g opacity="0.2">
<path d="M16.657 29.7953C16.1886 29.9936 15.6476 29.7745 15.4493 29.3061L15.1601 28.6228C14.9618 28.1543 15.1809 27.6134 15.6493 27.4151C16.1177 27.2168 16.6587 27.436 16.857 27.9044L17.1462 28.5877C17.3445 29.0561 17.1254 29.597 16.657 29.7953Z" fill="white"/>
</g>
<path d="M55.3032 0.517578L55.9508 2.04728L55.9359 2.05358C56.0321 2.36303 55.9522 2.71217 55.6569 2.92471L32.6475 20.5113C32.2141 20.8525 31.6793 21.0789 31.1178 21.1589L2.50487 25.4265C2.09588 25.4946 1.77076 25.2644 1.62385 24.9588C1.6176 24.944 1.6176 24.944 1.6113 24.9291L1.00772 23.5034C1.13976 23.8153 1.46484 24.0454 1.895 23.9859L30.508 19.7184C31.0631 19.6234 31.5979 19.397 32.0377 19.0708L55.0471 1.48411C55.3743 1.22296 55.4352 0.829484 55.3032 0.517578Z" fill="#1B1B1B"/>
<path d="M55.0452 1.48499L32.0413 19.0629C31.5931 19.4054 31.0654 19.6288 30.5074 19.7122L1.88829 23.9888C1.04314 24.1151 0.585044 23.0328 1.26404 22.514L24.2562 4.945C24.7042 4.60266 25.2316 4.37934 25.7893 4.29587L54.4208 0.0101998C55.266 -0.116316 55.7243 0.966086 55.0452 1.48499Z" fill="#474646"/>
<path d="M4.9836 34.2989L1.18324 25.3182C0.548781 23.8186 1.2516 22.0797 2.75124 21.4431L28.2044 10.6679C28.4864 10.5504 28.8026 10.6829 28.9222 10.9585C29.0397 11.2362 28.9094 11.5587 28.6317 11.6762L3.17848 22.4514C2.23427 22.8509 1.78993 23.9467 2.19154 24.891L5.9919 33.8717C6.10939 34.1494 5.97908 34.472 5.70137 34.5895C5.43114 34.7041 5.10674 34.5833 4.9836 34.2989Z" fill="#F9B938"/>
<path d="M6.95986 44.0401L11.338 42.1866C11.8923 41.9519 12.0792 41.2591 11.7136 40.7736L8.16925 36.151C8.30358 35.6805 8.27028 35.1611 8.06915 34.6859C7.57585 33.5207 6.22334 32.9728 5.05824 33.466C3.90432 33.9545 3.35623 35.3071 3.84954 36.4723C4.05067 36.9474 4.40062 37.3328 4.83193 37.5639L5.68387 43.3263C5.77813 43.9267 6.40555 44.2748 6.95986 44.0401Z" fill="#F9B938"/>
<path d="M6.95986 44.0404L7.85361 43.662C7.29929 43.8967 6.67174 43.5487 6.57762 42.9482L5.81529 37.7928C5.76677 37.4647 5.61706 37.1535 5.36337 36.9398C5.09891 36.7171 4.88447 36.4277 4.74328 36.0942C4.31704 35.0874 4.67055 33.9372 5.53458 33.3313C5.36833 33.3483 5.2165 33.3993 5.05824 33.4663C3.90432 33.9548 3.35623 35.3073 3.84954 36.4726C4.05067 36.9477 4.40062 37.3331 4.83193 37.5641L5.68387 43.3266C5.77813 43.927 6.40555 44.275 6.95986 44.0404Z" fill="#ECB021"/>
<path d="M31.4773 9.9763C31.837 10.8258 30.5227 12.189 28.5645 13.018C26.5834 13.8567 24.6895 13.8516 24.3299 13.0022C23.9702 12.1527 25.2848 10.7893 27.266 9.95062C29.2241 9.12164 31.1177 9.12682 31.4773 9.9763Z" fill="#F9B938"/>
</svg>
