<svg width="297" height="150" viewBox="0 0 297 150" fill="none" xmlns="http://www.w3.org/2000/svg">
<g opacity="0.2">
<path fill-rule="evenodd" clip-rule="evenodd" d="M178.167 -118.791C206.495 -113.078 236.996 -111.161 255.75 -90.6337C277.839 -66.456 292.981 -33.9331 285.395 -1.42774C277.563 32.1283 247.72 56.4899 217.022 75.3048C185.671 94.5203 150.649 106.937 114.734 103.173C74.3673 98.9419 28.953 88.1844 11.5372 53.7666C-5.42973 20.236 17.9729 -19.5223 34.7776 -54.8397C48.1272 -82.8959 66.3697 -109.888 95.6125 -122.93C122.188 -134.783 150.358 -124.4 178.167 -118.791Z" stroke="#ED9231"/>
<path fill-rule="evenodd" clip-rule="evenodd" d="M198.607 -132.068C235.486 -124.088 255.452 -88.4106 270.326 -55.5063C283.278 -26.8515 284.329 5.07153 274.57 35.9833C265.105 65.9627 247.96 96.2901 218.145 109.767C190.3 122.355 162.106 102.706 132.17 100.353C92.529 97.2371 43.7499 121.391 17.4343 93.9912C-9.502 65.9447 2.78786 18.3679 17.805 -18.7259C31.313 -52.0919 61.9253 -74.0159 93.4521 -93.7797C126.282 -114.36 161.673 -140.06 198.607 -132.068Z" stroke="#ED9231"/>
<path fill-rule="evenodd" clip-rule="evenodd" d="M204.165 -124.252C240.067 -124.372 276.85 -103.7 289.425 -72.2201C301.298 -42.4954 272.826 -12.3366 261.261 18.6859C251.269 45.4868 250.312 75.8086 227.329 94.3443C201.191 115.425 165.298 130.65 133.962 121.353C103.647 112.358 98.6032 75.8962 81.0772 50.9495C61.4288 22.9816 14.6849 1.85354 26.7262 -31.2885C38.9107 -64.8249 92.841 -54.4966 125.63 -71.6752C154.689 -86.9 171.766 -124.144 204.165 -124.252Z" stroke="#ED9231"/>
<path fill-rule="evenodd" clip-rule="evenodd" d="M188.078 -128.927C222.137 -123.733 247.162 -96.1169 260.439 -66.0845C272.339 -39.1654 258.886 -9.70501 253.886 19.9359C247.773 56.1713 260.209 101.603 228.471 123.42C196.546 145.365 156.09 120.301 119.035 112.633C81.5867 104.883 33.2967 110.721 14.7212 79.1835C-3.7998 47.7381 20.6944 7.95379 37.2474 -26.2272C50.3237 -53.2288 71.6406 -73.6336 97.133 -90.9914C125.3 -110.17 155.06 -133.963 188.078 -128.927Z" stroke="#ED9231"/>
<path fill-rule="evenodd" clip-rule="evenodd" d="M180.466 -115.527C206.103 -106.84 236.593 -108.121 253.342 -87.9366C271.954 -65.5074 273.949 -35.3057 271.41 -5.92735C268.094 32.4401 268.836 76.4632 236.977 101.446C203.023 128.071 154.555 128.192 113.812 117.656C74.7451 107.555 41.9267 81.8224 25.4902 46.7602C10.4313 14.6367 20.8829 -22.0888 31.961 -56.9475C42.5946 -90.4072 52.3074 -131.138 86.2863 -144.542C119.09 -157.482 148.186 -126.465 180.466 -115.527Z" stroke="#ED9231"/>
<path fill-rule="evenodd" clip-rule="evenodd" d="M174.115 -98.9703C209.676 -92.7449 260.245 -107.479 275.554 -76.6089C291.03 -45.4037 245.595 -15.0278 232.395 18.5475C221.615 45.9689 232.43 83.1565 206.467 99.1314C180.45 115.14 150.314 92.3778 120.915 87.1416C89.5047 81.5472 48.2686 93.121 31.1012 67.8972C13.8563 42.5595 39.5131 9.54845 47.4027 -20.8684C55.6553 -52.6845 48.3814 -93.2744 77.5737 -111.268C106.845 -129.31 140.998 -104.768 174.115 -98.9703Z" stroke="#ED9231"/>
<path fill-rule="evenodd" clip-rule="evenodd" d="M179.131 -110.355C204.823 -103.506 223.548 -86.4039 240.068 -66.7636C260.508 -42.4616 285.829 -18.4572 283.36 13.5654C280.519 50.4162 261.895 91.1928 226.608 107.806C192.532 123.848 157.147 99.6071 122.064 89.5014C91.0886 80.5788 56.4708 77.7415 37.2515 53.2609C16.2424 26.5008 5.747 -10.1691 18.0113 -43.0351C29.7409 -74.4683 64.2632 -91.6772 96.3376 -105.079C123.119 -116.269 151.904 -117.613 179.131 -110.355Z" stroke="#ED9231"/>
<path fill-rule="evenodd" clip-rule="evenodd" d="M177.688 -115.15C207.769 -108.21 226.077 -82.5428 241.77 -57.4396C257.646 -32.0429 270.897 -4.4751 265.704 25.6438C259.954 58.9965 245.219 96.3325 212.76 110.812C181.56 124.73 149.428 103.034 118.702 91.2209C94.8296 82.0424 73.1098 70.8836 57.8902 51.2683C40.5064 28.8638 22.7168 3.4507 28.6227 -24.8749C34.7951 -54.4781 60.8806 -76.5327 87.9559 -92.9297C115.4 -109.55 147.237 -122.177 177.688 -115.15Z" stroke="#ED9231"/>
</g>
</svg>
