<svg width="89" height="73" viewBox="0 0 89 73" fill="none" xmlns="http://www.w3.org/2000/svg">
<path d="M88.9364 1.728V65.408C88.9364 67.024 86.8244 67.744 85.8004 66.48L75.7684 54.048C75.4324 53.632 74.9364 53.392 74.3924 53.392H8.79237C7.81637 53.392 7.03237 52.624 7.03237 51.664V1.728C7.03237 0.784 7.81637 0 8.79237 0H87.1764C88.1524 0 88.9364 0.768 88.9364 1.728Z" fill="#61A9AF"/>
<path d="M68.9043 53.392V58.128C68.9043 58.992 68.2643 59.68 67.4483 59.68H13.0163C12.5683 59.68 12.1523 59.904 11.8643 60.272L3.52828 71.424C2.68028 72.576 0.936279 71.92 0.936279 70.464V13.312C0.936279 12.448 1.57628 11.76 2.39228 11.76H7.03228V51.68C7.03228 52.624 7.81628 53.408 8.79228 53.408H68.9043V53.392Z" fill="#497F83"/>
<path d="M65.3524 18.144L65.3364 37.696C65.3364 47.248 27.4484 49.28 27.7044 35.68V18.144H65.3524Z" fill="#ED9231"/>
<path d="M76.9363 18.1441L46.4403 29.3121L16.1363 18.1441L46.4403 6.97607L76.9363 18.1441Z" fill="#D5832C"/>
<path d="M71.1602 28.2081C71.0482 28.2241 70.9362 28.2081 70.8402 28.1601L45.4162 15.6961C45.1122 15.5521 44.9842 15.1841 45.1282 14.8641C45.2722 14.5601 45.6242 14.4161 45.9122 14.5601L71.3362 27.0241C71.6402 27.1681 71.7682 27.5361 71.6242 27.8561C71.5442 28.0641 71.3682 28.1761 71.1602 28.2081Z" fill="#497F83"/>
<path d="M75.4805 39.968C72.6645 38.56 69.7365 38.672 66.6965 39.968L67.1925 37.472L68.9205 28.64C68.9205 28.672 68.9205 28.72 68.9365 28.768C68.9845 27.616 69.9445 26.72 71.0965 26.72H71.1125C72.2805 26.736 73.2085 27.616 73.2565 28.768C73.2725 28.736 73.2725 28.688 73.2725 28.64L75.4805 39.968Z" fill="#F9DDBF"/>
</svg>
