<svg width="1035" height="281" viewBox="0 0 1035 281" fill="none" xmlns="http://www.w3.org/2000/svg">
<g opacity="0.2">
<path fill-rule="evenodd" clip-rule="evenodd" d="M592.228 174.616C683.924 199.709 781.614 213.198 846.416 283.314C922.743 365.9 978.965 473.474 962.737 575.506C945.985 680.836 856.82 751.474 763.576 804.183C668.346 858.014 559.75 889.237 444.348 868.539C314.644 845.276 167.252 799.94 103.317 685.763C41.0304 574.528 105.898 453.138 150.821 344.346C186.508 257.922 238.052 176.079 328.073 141.464C409.883 110.006 502.214 149.982 592.228 174.616Z" stroke="white"/>
<path fill-rule="evenodd" clip-rule="evenodd" d="M654.954 134.283C775.251 168.933 848.102 288.618 903.931 398.139C952.55 493.515 963.787 596.518 940.088 693.638C917.104 787.828 869.566 881.272 777.224 917.403C690.981 951.146 595.678 881.052 499.048 866.202C371.088 846.536 220.527 912.421 129.341 817.834C36.0045 721.016 63.7163 570.874 102.762 455.135C137.883 351.027 230.703 287.904 326.991 231.956C427.257 173.696 534.482 99.5815 654.954 134.283Z" stroke="white"/>
<path fill-rule="evenodd" clip-rule="evenodd" d="M674.864 160.414C790.148 168.766 913.387 244.319 961.538 348.804C1007 447.464 922.993 537.704 893.498 634.841C868.016 718.76 872.419 816.221 803.173 870.348C724.418 931.909 612.889 972.228 509.951 934.646C410.365 898.289 385.173 779.585 322.731 694.944C252.726 600.053 97.3807 520.605 127.882 416.755C158.747 311.669 334.511 358.069 435.586 310.701C525.166 268.719 570.83 152.877 674.864 160.414Z" stroke="white"/>
<path fill-rule="evenodd" clip-rule="evenodd" d="M622.121 141.117C732.889 166.163 820.149 261.307 870.239 361.383C915.137 451.085 879.163 542.806 870.406 637.168C859.699 752.524 910.886 902.052 814.247 964.672C717.037 1027.66 580.804 936.987 459.794 903.233C337.502 869.121 183.711 876.187 116.215 769.966C48.9172 664.056 117.837 541.734 162.612 435.546C197.982 351.662 261.471 291.056 339.134 241.294C424.947 186.31 514.74 116.837 622.121 141.117Z" stroke="white"/>
<path fill-rule="evenodd" clip-rule="evenodd" d="M600.846 182.999C685.274 217.203 782.819 220.492 841.552 289.553C906.814 366.292 920.66 464.017 919.752 557.987C918.566 680.711 931.794 822.63 835.696 895.319C733.279 972.787 577.745 961.388 444.379 917.561C316.499 875.536 204.823 784.707 143.428 667.822C87.178 560.733 111.673 445.032 138.639 335.493C164.523 230.35 185.659 101.571 291.416 66.6797C393.513 32.9951 494.546 139.934 600.846 182.999Z" stroke="white"/>
<path fill-rule="evenodd" clip-rule="evenodd" d="M584.433 235.347C699.881 263.98 858.249 228.91 914.883 331.815C972.133 435.839 834.058 522.416 800.035 627.097C772.247 712.591 816.036 834.706 736.796 879.736C657.391 924.859 555.255 844.408 459.79 820.448C357.796 794.85 228.547 822.032 167.349 736.817C105.875 651.217 179.944 551.373 197.736 455.553C216.346 355.324 183.061 223.136 272.15 172.404C361.479 121.535 476.922 208.682 584.433 235.347Z" stroke="white"/>
<path fill-rule="evenodd" clip-rule="evenodd" d="M597.031 203.964C680.166 231.868 743.703 290.644 800.864 356.948C871.591 438.989 957.722 521.256 957.682 622.306C957.635 738.59 908.499 863.548 800.642 907.81C696.49 950.552 578.388 865.118 464.683 824.623C364.291 788.869 253.828 771.556 186.929 689.241C113.801 599.261 71.6004 480.35 102.496 378.975C132.045 282.019 237.329 235.682 335.778 200.842C417.98 171.751 508.928 174.392 597.031 203.964Z" stroke="white"/>
<path fill-rule="evenodd" clip-rule="evenodd" d="M591.722 185.306C689.506 214.814 754.278 301.455 810.561 385.659C867.501 470.846 916.589 562.353 907.388 657.569C897.199 763.007 859.289 879.032 759.161 917.558C662.917 954.59 554.961 877.323 453.92 832.05C375.416 796.876 303.303 755.879 249.879 689.368C188.857 613.4 125.802 527.697 137.72 438.398C150.176 345.071 228.088 280.74 310.55 234.77C394.134 188.174 492.732 155.433 591.722 185.306Z" stroke="white"/>
</g>
</svg>
