<svg width="40" height="43" viewBox="0 0 40 43" fill="none" xmlns="http://www.w3.org/2000/svg">
<path fill-rule="evenodd" clip-rule="evenodd" d="M13.3568 40.1269C9.63291 39.0752 5.73407 38.5447 1.95195 38.0587C1.13734 37.9568 0.381028 38.5254 0.322841 39.3264C0.206468 40.1281 0.788674 40.8612 1.5451 40.9631C5.21085 41.4309 8.99263 41.9316 12.542 42.944C13.2984 43.1636 14.1134 42.7116 14.3461 41.9339C14.5789 41.1569 14.1133 40.3471 13.3568 40.1269Z" fill="#262626"/>
<path fill-rule="evenodd" clip-rule="evenodd" d="M24.6455 25.2177C18.6523 19.0629 11.9027 13.7003 6.02581 7.38028C5.50214 6.79003 4.57115 6.75841 3.98929 7.30942C3.40742 7.86103 3.34946 8.78856 3.93133 9.37881C9.80816 15.717 16.5578 21.0971 22.551 27.2701C23.1329 27.8463 24.0636 27.8545 24.6455 27.2877C25.1692 26.7215 25.2274 25.7939 24.6455 25.2177Z" fill="#262626"/>
<path fill-rule="evenodd" clip-rule="evenodd" d="M35.8761 1.54341C36.0507 5.06616 36.2249 8.58891 36.3995 12.1123C36.3995 12.9192 37.098 13.5422 37.9126 13.503C38.7273 13.4631 39.3088 12.7763 39.3088 11.9688C39.1342 8.44018 38.96 4.91216 38.7854 1.38413C38.7273 0.577224 38.0289 -0.0417174 37.2143 0.00219986C36.4579 0.0461172 35.8179 0.737085 35.8761 1.54341Z" fill="#262626"/>
</svg>
