<svg width="20" height="20" viewBox="0 0 20 20" fill="none" xmlns="http://www.w3.org/2000/svg">
<g clip-path="url(#clip0_253_9256)">
<path d="M13.7491 0C12.6829 0.0737496 11.4366 0.756246 10.7104 1.64499C10.0479 2.45124 9.50292 3.64873 9.71542 4.81247C10.8804 4.84872 12.0841 4.14998 12.7816 3.24623C13.4341 2.40499 13.9279 1.21499 13.7491 0Z" fill="black"/>
<path d="M17.9629 6.7101C16.9391 5.42636 15.5004 4.68137 14.1416 4.68137C12.3479 4.68137 11.5891 5.54011 10.3429 5.54011C9.05791 5.54011 8.08167 4.68387 6.53043 4.68387C5.00669 4.68387 3.3842 5.61511 2.35545 7.2076C0.909212 9.45009 1.15671 13.6663 3.50045 17.2575C4.33919 18.5425 5.45919 19.9875 6.92418 20C8.22792 20.0125 8.59542 19.1638 10.3617 19.155C12.1279 19.145 12.4629 20.0113 13.7641 19.9975C15.2304 19.9863 16.4116 18.385 17.2504 17.1C17.8516 16.1788 18.0754 15.7151 18.5416 14.6751C15.1504 13.3838 14.6066 8.56134 17.9629 6.7101Z" fill="black"/>
</g>
<defs>
<clipPath id="clip0_253_9256">
<rect width="20" height="20" fill="white"/>
</clipPath>
</defs>
</svg>
