<svg width="20" height="20" viewBox="0 0 20 20" fill="none" xmlns="http://www.w3.org/2000/svg">
<g clip-path="url(#clip0_253_9241)">
<path d="M4.43242 12.0846L3.73625 14.6835L1.19176 14.7374C0.431328 13.3269 0 11.7132 0 9.99838C0 8.34014 0.403281 6.77639 1.11812 5.39948H1.11867L3.38398 5.81479L4.37633 8.06651C4.16863 8.67201 4.05543 9.32201 4.05543 9.99838C4.05551 10.7324 4.18848 11.4358 4.43242 12.0846Z" fill="#FBBB00"/>
<path d="M19.8253 8.13168C19.9401 8.73661 20 9.36133 20 9.99981C20 10.7157 19.9247 11.4141 19.7813 12.0877C19.2945 14.38 18.0225 16.3817 16.2605 17.7982L16.2599 17.7976L13.4066 17.652L13.0028 15.1311C14.172 14.4454 15.0858 13.3723 15.5671 12.0877H10.2198V8.13168H15.6451H19.8253Z" fill="#518EF8"/>
<path d="M16.2599 17.7964L16.2605 17.797C14.5468 19.1744 12.3698 19.9986 10 19.9986C6.1918 19.9986 2.88083 17.8701 1.1918 14.7376L4.43247 12.0849C5.27696 14.3387 7.45114 15.9431 10 15.9431C11.0956 15.9431 12.122 15.647 13.0028 15.1299L16.2599 17.7964Z" fill="#28B446"/>
<path d="M16.3829 2.30219L13.1434 4.95437C12.2319 4.38461 11.1544 4.05547 9.99998 4.05547C7.39338 4.05547 5.17853 5.73348 4.37635 8.06812L1.11865 5.40109H1.1181C2.7824 2.1923 6.13513 0 9.99998 0C12.4263 0 14.6511 0.864297 16.3829 2.30219Z" fill="#F14336"/>
</g>
<defs>
<clipPath id="clip0_253_9241">
<rect width="20" height="20" fill="white"/>
</clipPath>
</defs>
</svg>
