<svg width="491" height="360" viewBox="0 0 491 360" fill="none" xmlns="http://www.w3.org/2000/svg">
<g opacity="0.2">
<path fill-rule="evenodd" clip-rule="evenodd" d="M625.527 135.83C712.189 153.308 805.497 159.174 862.871 221.97C930.448 295.935 976.769 395.43 953.561 494.871C929.603 597.527 838.305 672.054 744.395 729.613C648.485 788.398 541.344 826.385 431.471 814.868C307.981 801.924 169.048 769.015 115.769 663.723C63.864 561.145 135.458 439.516 186.867 331.472C227.707 245.642 283.514 163.068 372.975 123.168C454.276 86.908 540.452 118.672 625.527 135.83Z" stroke="#5B9EA4"/>
<path fill-rule="evenodd" clip-rule="evenodd" d="M688.057 95.2097C800.88 119.623 861.96 228.769 907.461 329.43C947.086 417.092 950.301 514.752 920.445 609.318C891.489 701.031 839.04 793.81 747.83 835.04C662.645 873.547 576.394 813.437 484.814 806.239C363.542 796.707 214.315 870.6 133.81 786.777C51.406 700.976 89.0034 555.428 134.944 441.95C176.268 339.876 269.918 272.805 366.366 212.343C466.799 149.383 575.07 70.7604 688.057 95.2097Z" stroke="#5B9EA4"/>
<path fill-rule="evenodd" clip-rule="evenodd" d="M705.06 119.121C814.894 118.756 927.421 181.995 965.889 278.299C1002.21 369.234 915.11 461.496 879.73 556.401C849.164 638.391 846.236 731.152 775.927 787.857C695.962 852.349 586.157 898.926 490.295 870.482C397.554 842.965 382.124 731.42 328.508 655.103C268.399 569.543 125.399 504.907 162.236 403.518C199.511 300.923 364.496 332.52 464.804 279.966C553.703 233.39 605.944 119.451 705.06 119.121Z" stroke="#5B9EA4"/>
<path fill-rule="evenodd" clip-rule="evenodd" d="M655.847 104.82C760.042 120.712 836.599 205.194 877.215 297.07C913.62 379.421 872.465 469.547 857.169 560.226C838.469 671.078 876.511 810.065 779.419 876.806C681.752 943.942 557.989 867.266 444.629 843.806C330.067 820.097 182.337 837.958 125.51 741.477C68.8503 645.279 143.784 523.57 194.423 419.002C234.426 336.398 299.639 273.975 377.627 220.874C463.796 162.201 554.838 89.4145 655.847 104.82Z" stroke="#5B9EA4"/>
<path fill-rule="evenodd" clip-rule="evenodd" d="M632.56 145.814C710.992 172.39 804.267 168.47 855.506 230.22C912.442 298.836 918.545 391.23 910.779 481.105C900.636 598.479 902.904 733.156 805.44 809.584C701.568 891.037 553.294 891.405 428.652 859.175C309.137 828.271 208.738 749.551 158.455 642.288C112.386 544.015 144.36 431.663 178.251 325.023C210.781 222.662 240.495 98.0559 344.444 57.0517C444.797 17.4661 533.81 112.354 632.56 145.814Z" stroke="#5B9EA4"/>
<path fill-rule="evenodd" clip-rule="evenodd" d="M613.13 196.466C721.92 215.511 876.622 170.437 923.456 264.875C970.799 360.338 831.803 453.265 791.424 555.979C758.446 639.867 791.529 753.633 712.103 802.504C632.511 851.477 540.318 781.843 450.379 765.824C354.289 748.71 228.139 784.116 175.62 706.951C122.864 629.438 201.354 528.449 225.49 435.397C250.737 338.065 228.484 213.891 317.79 158.845C407.337 103.651 511.82 178.73 613.13 196.466Z" stroke="#5B9EA4"/>
<path fill-rule="evenodd" clip-rule="evenodd" d="M628.476 161.638C707.073 182.59 764.358 234.909 814.895 294.993C877.427 369.338 954.89 442.773 947.336 540.738C938.644 653.472 881.671 778.217 773.718 829.04C669.473 878.117 561.221 803.958 453.896 773.043C359.135 745.747 253.232 737.067 194.435 662.175C130.164 580.31 98.0561 468.128 135.575 367.584C171.459 271.423 277.07 218.777 375.193 177.779C457.124 143.546 545.182 139.434 628.476 161.638Z" stroke="#5B9EA4"/>
<path fill-rule="evenodd" clip-rule="evenodd" d="M624.064 146.968C716.087 168.201 772.094 246.721 820.102 323.518C868.672 401.212 909.211 485.548 893.324 577.688C875.732 679.722 830.654 793.941 731.355 838.238C635.908 880.817 537.609 814.444 443.611 778.304C370.58 750.225 304.134 716.087 257.574 656.08C204.393 587.539 149.97 509.795 168.038 423.14C186.921 332.578 266.722 265.108 349.552 214.946C433.508 164.101 530.906 125.473 624.064 146.968Z" stroke="#5B9EA4"/>
</g>
</svg>
