<svg width="21" height="21" viewBox="0 0 21 21" fill="none" xmlns="http://www.w3.org/2000/svg">
<mask id="mask0_368_6225" style="mask-type:luminance" maskUnits="userSpaceOnUse" x="18" y="7" width="2" height="2">
<path d="M19.2947 8.12818L19.685 8.34031C19.3965 8.18758 19.0571 8.1197 18.6922 8.17061L18.3019 7.95849C18.6668 7.90758 19.0062 7.97546 19.2947 8.12818Z" fill="white"/>
</mask>
<g mask="url(#mask0_368_6225)">
<path d="M18.6922 8.17045L18.3019 7.95833C18.531 7.92439 18.7431 7.94136 18.9468 7.99227L19.3371 8.20439C19.1334 8.15348 18.9128 8.13651 18.6922 8.17045Z" fill="#959595"/>
<path d="M19.3286 8.20455L18.9383 7.99243C19.0401 8.01789 19.1419 8.05183 19.2353 8.10274L19.6256 8.31486C19.5322 8.26395 19.4389 8.23001 19.3286 8.20455Z" fill="#919191"/>
<path d="M19.6256 8.31491L19.2353 8.10278C19.2522 8.11127 19.2692 8.11975 19.2947 8.12824L19.685 8.34036C19.668 8.33187 19.6425 8.32339 19.6256 8.31491Z" fill="#8C8C8C"/>
</g>
<mask id="mask1_368_6225" style="mask-type:luminance" maskUnits="userSpaceOnUse" x="8" y="19" width="2" height="2">
<path d="M9.57098 20.8131L9.18067 20.601C8.6631 20.321 8.31522 19.7356 8.31522 19.0228L8.70552 19.2349C8.70552 19.9477 9.0534 20.5247 9.57098 20.8131Z" fill="white"/>
</mask>
<g mask="url(#mask1_368_6225)">
<path d="M9.57098 20.8131L9.18067 20.601C8.6631 20.321 8.31522 19.7356 8.31522 19.0228L8.70552 19.2349C8.70552 19.9477 9.0534 20.5247 9.57098 20.8131Z" fill="#767676"/>
</g>
<path d="M10.5892 9.30759L10.1989 9.09547L18.3019 7.9585L18.6922 8.17062L10.5892 9.30759Z" fill="#A0A0A0"/>
<path d="M8.70552 19.235L8.3237 19.0229L8.34067 11.3695L8.72249 11.5816L8.70552 19.235Z" fill="#737373"/>
<mask id="mask2_368_6225" style="mask-type:luminance" maskUnits="userSpaceOnUse" x="8" y="9" width="3" height="3">
<path d="M8.7225 11.5816L8.3322 11.3695C8.3322 10.258 9.1722 9.23982 10.1989 9.09558L10.5892 9.3077C9.56251 9.45195 8.7225 10.4701 8.7225 11.5816Z" fill="white"/>
</mask>
<g mask="url(#mask2_368_6225)">
<path d="M8.7225 11.5817L8.3322 11.3695C8.3322 11.098 8.38311 10.8265 8.47644 10.5804L8.86675 10.7926C8.77341 11.0471 8.7225 11.3101 8.7225 11.5817Z" fill="#767676"/>
<path d="M8.86674 10.7925L8.47644 10.5804C8.51886 10.4701 8.56129 10.3683 8.62068 10.2665L9.01099 10.4786C8.95159 10.5804 8.90917 10.6822 8.86674 10.7925Z" fill="#7A7A7A"/>
<path d="M9.01099 10.4786L8.62068 10.2664C8.66311 10.1816 8.71402 10.0967 8.77341 10.0204L9.16371 10.2325C9.10432 10.3089 9.05341 10.3937 9.01099 10.4786Z" fill="#7F7F7F"/>
<path d="M9.16371 10.2325L8.77341 10.0203C8.82432 9.94399 8.88371 9.87611 8.9431 9.80823L9.33341 10.0203C9.26553 10.0882 9.21462 10.1561 9.16371 10.2325Z" fill="#838383"/>
<path d="M9.32494 10.0204L8.93463 9.80831C8.99403 9.74043 9.06191 9.67255 9.1213 9.61316L9.5116 9.82528C9.45221 9.88468 9.39282 9.95256 9.32494 10.0204Z" fill="#888888"/>
<path d="M9.52008 9.82524L9.12978 9.61312C9.19766 9.54524 9.27402 9.48585 9.35887 9.43494L9.74917 9.64706C9.66432 9.69797 9.58796 9.75736 9.52008 9.82524Z" fill="#8C8C8C"/>
<path d="M9.74918 9.64702L9.35887 9.4349C9.45221 9.36702 9.55402 9.30762 9.66433 9.25671L10.0546 9.46884C9.94433 9.51975 9.84251 9.57914 9.74918 9.64702Z" fill="#919191"/>
<path d="M10.0461 9.46891L9.65584 9.25679C9.82554 9.17194 10.0122 9.12104 10.1989 9.09558L10.5892 9.3077C10.4025 9.33316 10.2158 9.39255 10.0461 9.46891Z" fill="#959595"/>
</g>
<path d="M18.6922 8.17073C19.7189 8.02649 20.5504 8.8071 20.5504 9.91861L20.5335 17.572C20.5335 18.6835 19.6935 19.7017 18.6668 19.8459L10.5637 20.9829C9.53705 21.1271 8.70554 20.3465 8.70554 19.235L8.7225 11.5816C8.7225 10.4701 9.56251 9.45195 10.5892 9.3077L18.6922 8.17073Z" fill="#C5C5C5"/>
<mask id="mask3_368_6225" style="mask-type:luminance" maskUnits="userSpaceOnUse" x="9" y="0" width="3" height="1">
<path d="M10.9794 0.186411L11.3697 0.398533C11.0813 0.245806 10.7419 0.177927 10.377 0.228836L9.98671 0.016714C10.3516 -0.0341953 10.691 0.0336836 10.9794 0.186411Z" fill="white"/>
</mask>
<g mask="url(#mask3_368_6225)">
<path d="M10.377 0.228681L9.98671 0.0165587C10.2158 -0.0173808 10.4279 -0.000411069 10.6316 0.0504982L11.0219 0.26262C10.8182 0.211711 10.5976 0.194741 10.377 0.228681Z" fill="#415F91"/>
<path d="M11.0134 0.262781L10.6231 0.0506592C10.7249 0.0761138 10.8267 0.110053 10.92 0.160963L11.3104 0.373085C11.217 0.322175 11.1152 0.288236 11.0134 0.262781Z" fill="#3F5C8C"/>
<path d="M11.3103 0.373133L10.9285 0.161011C10.9455 0.169496 10.9625 0.17798 10.9879 0.186465L11.3782 0.398587C11.3528 0.390102 11.3273 0.381618 11.3103 0.373133Z" fill="#3D5988"/>
</g>
<mask id="mask4_368_6225" style="mask-type:luminance" maskUnits="userSpaceOnUse" x="0" y="11" width="2" height="2">
<path d="M1.26425 12.8713L0.873942 12.6592C0.34788 12.3707 0 11.7937 0 11.0725L0.390304 11.2846C0.390304 11.9974 0.738185 12.5828 1.26425 12.8713Z" fill="white"/>
</mask>
<g mask="url(#mask4_368_6225)">
<path d="M1.26425 12.8713L0.873942 12.6592C0.34788 12.3707 0 11.7937 0 11.0725L0.390304 11.2846C0.390304 11.9974 0.738185 12.5828 1.26425 12.8713Z" fill="#334B72"/>
</g>
<path d="M2.27394 1.36582L1.88364 1.1537L9.98669 0.0167236L10.377 0.228846L2.27394 1.36582Z" fill="#45669B"/>
<path d="M0.390303 11.2846L0.00848389 11.0725L0.016969 3.42761L0.407273 3.63973L0.390303 11.2846Z" fill="#324A70"/>
<mask id="mask5_368_6225" style="mask-type:luminance" maskUnits="userSpaceOnUse" x="0" y="1" width="3" height="3">
<path d="M0.407272 3.63976L0.0169678 3.42763C0.0169678 2.31612 0.85697 1.29793 1.88364 1.15369L2.27395 1.36581C1.24728 1.51005 0.407272 2.52824 0.407272 3.63976Z" fill="white"/>
</mask>
<g mask="url(#mask5_368_6225)">
<path d="M0.407272 3.63977L0.0169678 3.42764C0.0169678 3.15613 0.0678771 2.88461 0.161211 2.63855L0.551515 2.85067C0.458182 3.10522 0.407272 3.36825 0.407272 3.63977Z" fill="#334B72"/>
<path d="M0.551513 2.85065L0.161209 2.63853C0.203633 2.52822 0.246057 2.4264 0.305451 2.32458L0.695756 2.53671C0.636362 2.63853 0.593938 2.74034 0.551513 2.85065Z" fill="#354E76"/>
<path d="M0.695756 2.53667L0.30545 2.32455C0.347875 2.2397 0.398784 2.15486 0.458178 2.07849L0.848484 2.29061C0.78909 2.36698 0.73818 2.45183 0.695756 2.53667Z" fill="#37517B"/>
<path d="M0.839997 2.2907L0.449692 2.07858C0.500601 2.00221 0.559996 1.93433 0.61939 1.86646L1.00969 2.07858C0.950299 2.14646 0.899391 2.21434 0.839997 2.2907Z" fill="#39547F"/>
<path d="M1.0097 2.07854L0.6194 1.86642C0.678794 1.79854 0.746673 1.73066 0.806067 1.67126L1.19637 1.88339C1.13698 1.94278 1.0691 2.01066 1.0097 2.07854Z" fill="#3B5683"/>
<path d="M1.20487 1.88347L0.81456 1.67135C0.882439 1.60347 0.958803 1.54407 1.04365 1.49316L1.43396 1.70529C1.34911 1.7562 1.27274 1.81559 1.20487 1.88347Z" fill="#3D5988"/>
<path d="M1.42546 1.70525L1.03516 1.49312C1.12849 1.42524 1.23031 1.36585 1.34061 1.31494L1.73092 1.52706C1.6291 1.57797 1.52728 1.63737 1.42546 1.70525Z" fill="#3F5C8C"/>
<path d="M1.73091 1.52702L1.34061 1.3149C1.5103 1.23005 1.69697 1.17914 1.88364 1.15369L2.27394 1.36581C2.08728 1.39126 1.90061 1.45066 1.73091 1.52702Z" fill="#415F91"/>
</g>
<path d="M10.377 0.228835C11.4037 0.0845922 12.2352 0.865201 12.2352 1.97672L12.2182 9.62159C12.2182 10.7331 11.3782 11.7598 10.3516 11.904L2.24849 13.041C1.22182 13.1852 0.390305 12.3962 0.390305 11.2846L0.407275 3.63976C0.407275 2.52824 1.24728 1.51005 2.27395 1.36581L10.377 0.228835Z" fill="#567EBF"/>
<mask id="mask6_368_6225" style="mask-type:luminance" maskUnits="userSpaceOnUse" x="5" y="8" width="4" height="2">
<path d="M5.60863 8.95127L5.21832 8.73915C5.57469 8.9343 6.08378 9.00218 6.69469 8.91733C7.12742 8.85794 7.53469 8.73915 7.82318 8.62036L8.21349 8.83248C7.925 8.95127 7.51773 9.07006 7.085 9.12945C6.47409 9.2143 5.95651 9.14642 5.60863 8.95127Z" fill="white"/>
</mask>
<g mask="url(#mask6_368_6225)">
<path d="M5.60863 8.95126L5.21832 8.73914C5.23529 8.74762 5.25226 8.7561 5.26923 8.76459L5.65954 8.97671C5.64257 8.97671 5.6256 8.95974 5.60863 8.95126Z" fill="#9E9E9E"/>
<path d="M5.65953 8.98519L5.26923 8.77307C5.36256 8.8155 5.46438 8.85792 5.58317 8.88338L5.97347 9.0955C5.85468 9.06156 5.75286 9.02762 5.65953 8.98519Z" fill="#A3A3A3"/>
<path d="M5.97346 9.09552L5.58316 8.88339C5.8971 8.95976 6.27044 8.97673 6.69468 8.91733C7.12741 8.85794 7.53468 8.73915 7.82317 8.62036L8.21347 8.83248C7.92499 8.95127 7.51771 9.07006 7.08498 9.12945C6.66074 9.18885 6.27892 9.17188 5.97346 9.09552Z" fill="#A8A8A8"/>
</g>
<path d="M7.45833 5.27731L7.07651 5.06519L7.10196 5.08216L7.48378 5.29428L7.45833 5.27731Z" fill="#A3A3A3"/>
<mask id="mask7_368_6225" style="mask-type:luminance" maskUnits="userSpaceOnUse" x="5" y="5" width="3" height="2">
<path d="M6.27045 6.00694L5.88014 5.79482C6.27893 5.53179 6.67772 5.28573 7.06802 5.07361L7.45833 5.28573C7.06802 5.49785 6.66075 5.74391 6.27045 6.00694Z" fill="white"/>
</mask>
<g mask="url(#mask7_368_6225)">
<path d="M6.27045 6.00694L5.88014 5.79482C6.27893 5.53179 6.67772 5.28573 7.06802 5.07361L7.45833 5.28573C7.06802 5.49785 6.66075 5.74391 6.27045 6.00694Z" fill="#A3A3A3"/>
</g>
<mask id="mask8_368_6225" style="mask-type:luminance" maskUnits="userSpaceOnUse" x="4" y="6" width="2" height="4">
<path d="M5.44742 9.63001L5.05712 9.41789C4.64136 9.1888 4.36984 8.75607 4.36984 8.08576C4.36984 7.46637 4.6753 6.89788 5.10803 6.4397L5.49833 6.65182C5.0656 7.11 4.76015 7.67 4.76015 8.29789C4.76015 8.96819 5.03166 9.40092 5.44742 9.63001Z" fill="white"/>
</mask>
<g mask="url(#mask8_368_6225)">
<path d="M5.44742 9.63002L5.05712 9.4179C4.64136 9.18881 4.36984 8.75608 4.36984 8.08577C4.36984 7.8482 4.41227 7.61062 4.49712 7.39001L4.88742 7.60214C4.80257 7.82274 4.76015 8.05183 4.76015 8.2979C4.76015 8.9682 5.03166 9.40093 5.44742 9.63002Z" fill="#858585"/>
<path d="M4.88742 7.6106L4.5056 7.39847C4.54802 7.29666 4.59045 7.18635 4.64136 7.09302L5.03166 7.30514C4.97227 7.39847 4.92984 7.50029 4.88742 7.6106Z" fill="#8A8A8A"/>
<path d="M5.03166 7.29669L4.64136 7.08457C4.69227 6.99123 4.75166 6.8979 4.81106 6.80457L5.20136 7.01669C5.14197 7.11002 5.08257 7.20335 5.03166 7.29669Z" fill="#8F8F8F"/>
<path d="M5.20135 7.01666L4.81105 6.80454C4.87893 6.70272 4.95529 6.60938 5.03166 6.52454L5.42196 6.73666C5.3456 6.82999 5.26923 6.92333 5.20135 7.01666Z" fill="#949494"/>
<path d="M5.42195 6.73667L5.04013 6.52455C5.06559 6.49909 5.09104 6.47364 5.11649 6.4397L5.5068 6.65182C5.47286 6.67727 5.44741 6.71121 5.42195 6.73667Z" fill="#999999"/>
</g>
<mask id="mask9_368_6225" style="mask-type:luminance" maskUnits="userSpaceOnUse" x="5" y="5" width="2" height="2">
<path d="M5.66803 5.9985L5.27773 5.78638C5.41348 5.86274 5.56621 5.92214 5.63409 5.90517C5.71894 5.89668 5.7953 5.83729 5.88015 5.78638L6.27046 5.9985C6.18561 6.04941 6.11773 6.10032 6.0244 6.11729C5.95652 6.12577 5.80379 6.07486 5.66803 5.9985Z" fill="white"/>
</mask>
<g mask="url(#mask9_368_6225)">
<path d="M5.66803 5.9985L5.27773 5.78638C5.29469 5.79486 5.32015 5.81183 5.33712 5.82032L5.72742 6.03244C5.71045 6.01547 5.69349 6.00698 5.66803 5.9985Z" fill="#9E9E9E"/>
<path d="M5.73592 6.03243L5.34561 5.82031C5.41349 5.85425 5.48985 5.88819 5.54925 5.89668L5.93955 6.1088C5.88016 6.09183 5.8038 6.06637 5.73592 6.03243Z" fill="#A3A3A3"/>
<path d="M5.93106 6.10879L5.54076 5.89667C5.5747 5.90516 5.60864 5.91364 5.62561 5.90516C5.65954 5.89667 5.69349 5.88819 5.72742 5.87122L6.11773 6.08334C6.08379 6.10031 6.04985 6.10879 6.01591 6.11728C5.99894 6.12576 5.97349 6.11728 5.93106 6.10879Z" fill="#A8A8A8"/>
<path d="M6.12622 6.09177L5.73592 5.87965C5.78683 5.85419 5.82925 5.82874 5.88016 5.7948L6.27046 6.00692C6.21955 6.03238 6.16864 6.06632 6.12622 6.09177Z" fill="#A3A3A3"/>
</g>
<mask id="mask10_368_6225" style="mask-type:luminance" maskUnits="userSpaceOnUse" x="5" y="4" width="2" height="1">
<path d="M6.0159 4.14884L6.40621 4.36096C6.24499 4.27612 6.06681 4.24218 5.87166 4.26763L5.48135 4.05551C5.67651 4.03005 5.85469 4.06399 6.0159 4.14884Z" fill="white"/>
</mask>
<g mask="url(#mask10_368_6225)">
<path d="M5.86318 4.26758L5.47287 4.05546C5.60014 4.03849 5.71045 4.04697 5.82075 4.07243L6.21105 4.28455C6.10075 4.2591 5.99045 4.25061 5.86318 4.26758Z" fill="#A8A8A8"/>
<path d="M6.21106 4.28463L5.82076 4.07251C5.87166 4.08948 5.93106 4.10645 5.98197 4.1319L6.37227 4.34403C6.32136 4.31857 6.26197 4.3016 6.21106 4.28463Z" fill="#A3A3A3"/>
<path d="M6.37227 4.34408L5.98196 4.13196C5.99045 4.14044 6.00742 4.14044 6.0159 4.14893L6.40621 4.36105C6.38924 4.36105 6.38075 4.35256 6.37227 4.34408Z" fill="#9E9E9E"/>
</g>
<mask id="mask11_368_6225" style="mask-type:luminance" maskUnits="userSpaceOnUse" x="4" y="4" width="2" height="3">
<path d="M5.49832 6.65191L5.10802 6.43979C4.63286 6.14282 4.4462 5.90525 4.4462 5.48949C4.4462 5.28585 4.51408 4.98888 4.64983 4.72585C4.84499 4.33554 5.15044 4.09797 5.47287 4.05554L5.86317 4.26766C5.54075 4.31009 5.23529 4.55615 5.04014 4.93797C4.90438 5.201 4.8365 5.49797 4.8365 5.70161C4.8365 6.11737 5.02317 6.35494 5.49832 6.65191Z" fill="white"/>
</mask>
<g mask="url(#mask11_368_6225)">
<path d="M5.49832 6.65187L5.10802 6.43975C4.63286 6.14278 4.4462 5.9052 4.4462 5.48944C4.4462 5.33671 4.48014 5.14156 4.5565 4.94641L4.94681 5.15853C4.87044 5.35369 4.8365 5.55732 4.8365 5.70157C4.8365 6.11732 5.02317 6.3549 5.49832 6.65187Z" fill="#858585"/>
<path d="M4.94681 5.15856L4.5565 4.94644C4.58196 4.87008 4.6159 4.8022 4.64984 4.72583C4.65832 4.71735 4.65832 4.70038 4.66681 4.69189L5.05711 4.90402C5.04863 4.9125 5.04863 4.92947 5.04014 4.93796C5.0062 5.01432 4.97226 5.09068 4.94681 5.15856Z" fill="#8A8A8A"/>
<path d="M5.0571 4.9124L4.66679 4.70028C4.70073 4.64088 4.73467 4.58997 4.76861 4.53906L5.15892 4.75118C5.12498 4.80209 5.09104 4.853 5.0571 4.9124Z" fill="#8F8F8F"/>
<path d="M5.15894 4.75126L4.76863 4.53914C4.80257 4.49671 4.83651 4.45429 4.87045 4.41187L5.26075 4.62399C5.21833 4.66641 5.18439 4.70884 5.15894 4.75126Z" fill="#949494"/>
<path d="M5.25226 4.624L4.86195 4.41188C4.89589 4.37794 4.92983 4.33551 4.96377 4.31006L5.35408 4.52218C5.32014 4.55612 5.2862 4.59006 5.25226 4.624Z" fill="#999999"/>
<path d="M5.36256 4.52213L4.97226 4.31001C5.0062 4.27607 5.04862 4.24213 5.09105 4.21667L5.48135 4.4288C5.43893 4.45425 5.3965 4.48819 5.36256 4.52213Z" fill="#9E9E9E"/>
<path d="M5.47287 4.42881L5.08257 4.21668C5.13347 4.18274 5.1759 4.15729 5.22681 4.13184L5.61711 4.34396C5.5662 4.36941 5.52378 4.39487 5.47287 4.42881Z" fill="#A3A3A3"/>
<path d="M5.61711 4.34403L5.22681 4.13191C5.30317 4.09797 5.38802 4.07251 5.47287 4.05554L5.86317 4.26766C5.77832 4.28463 5.70196 4.31009 5.61711 4.34403Z" fill="#A8A8A8"/>
</g>
<path d="M5.86317 4.26754C6.25347 4.21664 6.54196 4.38633 6.81347 4.73421L6.73711 4.84452C6.50802 4.75967 6.28741 4.7427 6.04983 4.77664C5.55771 4.84452 5.16741 5.17543 5.16741 5.36209C5.16741 5.5827 5.28619 5.73543 5.55771 5.91361C5.71044 6.01543 5.93953 6.11725 6.02438 6.10028C6.10923 6.09179 6.18559 6.0324 6.27044 5.98149C6.66923 5.71846 7.06802 5.4724 7.45832 5.26028L7.48378 5.26876L7.31408 5.91361C6.75408 6.22755 6.22802 6.54998 5.80377 6.88089C5.36256 7.23725 5.06559 7.66998 5.0571 8.04332C5.0571 8.84089 5.87165 9.28211 7.0765 9.11241C7.50923 9.05301 7.91651 8.93423 8.20499 8.81544L8.23045 8.90029C8.00984 9.11241 7.76378 9.33302 7.49226 9.53665C7.34802 9.64696 7.09347 9.73181 6.72862 9.78271C5.65104 9.93544 4.75165 9.5112 4.75165 8.28089C4.75165 7.66149 5.0571 7.09301 5.48983 6.63482C5.01468 6.33785 4.82801 6.10028 4.82801 5.68452C4.82801 5.48088 4.89589 5.18391 5.03165 4.92088C5.23529 4.55603 5.54074 4.31845 5.86317 4.26754Z" fill="#DFDFDF"/>
<mask id="mask12_368_6225" style="mask-type:luminance" maskUnits="userSpaceOnUse" x="15" y="16" width="1" height="2">
<path d="M15.9772 17.4786L15.5869 17.2664C15.485 16.9695 15.3662 16.5622 15.222 16.0531L15.6123 16.2652C15.7565 16.7743 15.8753 17.1731 15.9772 17.4786Z" fill="white"/>
</mask>
<g mask="url(#mask12_368_6225)">
<path d="M15.9772 17.4786L15.5869 17.2664C15.485 16.9695 15.3662 16.5622 15.222 16.0531L15.6123 16.2652C15.7565 16.7743 15.8753 17.1731 15.9772 17.4786Z" fill="#26426F"/>
</g>
<path d="M14.0002 15.3658L13.6184 15.1536L14.8656 14.9755L15.2559 15.1876L14.0002 15.3658Z" fill="#345997"/>
<mask id="mask13_368_6225" style="mask-type:luminance" maskUnits="userSpaceOnUse" x="14" y="13" width="2" height="3">
<path d="M15.2559 15.1877L14.8656 14.9756C14.6111 14.195 14.4075 13.5671 14.2547 13.0919L14.645 13.304C14.7978 13.7792 14.9929 14.4071 15.2559 15.1877Z" fill="white"/>
</mask>
<g mask="url(#mask13_368_6225)">
<path d="M15.2559 15.1877L14.8656 14.9756C14.6111 14.195 14.4075 13.5671 14.2547 13.0919L14.645 13.304C14.7978 13.7792 14.9929 14.4071 15.2559 15.1877Z" fill="#26426F"/>
</g>
<path d="M14.1105 11.5476L13.7287 11.344L14.7723 11.1913L15.1626 11.4034L14.1105 11.5476Z" fill="#345997"/>
<path d="M11.9808 18.0387L11.5905 17.8266L13.7287 11.3441L14.1105 11.5478L11.9808 18.0387Z" fill="#294677"/>
<path d="M15.1626 11.4034L17.2754 17.3004L15.9856 17.4786C15.8838 17.1816 15.765 16.7744 15.6208 16.2653L13.6353 16.5453C13.4996 17.0374 13.3723 17.4701 13.2535 17.8604L11.9893 18.0386L14.119 11.5477L15.1626 11.4034ZM14.0002 15.3659L15.2475 15.1877C14.9929 14.4071 14.7893 13.7792 14.6366 13.3041C14.5093 13.7198 14.2972 14.3986 14.0002 15.3659Z" fill="#416EBB"/>
</svg>
