<svg width="1437" height="187" viewBox="0 0 1437 187" fill="none" xmlns="http://www.w3.org/2000/svg">
<path fill-rule="evenodd" clip-rule="evenodd" d="M1350.76 77.3903C1346.86 79.1549 1344.77 83.7617 1345.03 88.033C1345.14 90.5212 1345.97 92.8971 1346.02 95.3143C1346.1 98.9393 1344.5 101.716 1340.54 101.353C1338.92 101.147 1337.31 100.518 1335.69 100.172C1334 99.8216 1332.16 99.7491 1330.77 100.69C1329.98 101.157 1329.38 101.988 1328.92 102.822C1327.47 105.534 1327.76 109.025 1329.14 111.779C1330.59 114.6 1332.92 116.822 1335.48 118.624C1337.48 120.052 1339.29 120.972 1341.29 122.61C1342.11 123.282 1342.99 124.381 1342.47 125.284C1342.15 125.912 1341.36 126.094 1340.66 125.926C1340.03 125.758 1339.48 125.311 1339.01 124.797C1337.76 123.753 1336.6 122.572 1335.13 122.019C1333.6 121.391 1331.67 121.604 1330.7 122.915C1330.02 123.884 1330.05 125.092 1330.15 126.3C1330.8 131.439 1333.81 136.098 1337.73 139.586C1340.82 142.263 1344.43 144.32 1348.12 146.023C1352.16 147.883 1354.35 148.251 1358.54 146.28C1358.69 146.215 1358.83 146.149 1358.91 146.081C1364.11 143.513 1366.68 139.637 1370.59 135.597C1372.44 133.609 1374.44 131.628 1375.38 129.037C1376.01 127.426 1376.23 125.589 1375.51 124C1374.78 122.411 1372.92 121.343 1371.26 121.919C1369.96 122.366 1368.99 123.749 1367.63 123.911C1363.99 124.549 1363.64 118.713 1364.38 116.399C1365.44 112.678 1370.03 111.504 1372.6 109.118C1374.96 107.007 1376.01 103.639 1375.42 100.563C1375.36 100.134 1375.24 99.705 1374.96 99.41C1374.55 99.0389 1373.99 98.9464 1373.42 98.9258C1372.5 98.8874 1371.43 99.0595 1370.43 99.2344C1368.71 99.5948 1366.93 99.8834 1365.53 99.046C1364.22 98.2149 1362.59 96.3786 1361.79 94.9979C1359.54 90.721 1363 85.7431 1361.46 81.3524C1360.44 78.3999 1357.31 76.6488 1354.12 76.5977C1352.99 76.6218 1351.84 76.8621 1350.76 77.3903Z" fill="#F8BBD0"/>
<path fill-rule="evenodd" clip-rule="evenodd" d="M1357.32 186.598H1348.72V136.716L1345.96 133.807L1347.18 132.523L1348.72 134.148V115.746L1345.96 112.837L1347.18 111.553L1348.72 113.178V96.5977H1357.32V120.442L1365.74 111.553L1366.96 112.837L1357.32 123.011V141.412L1365.74 132.523L1366.96 133.807L1357.32 143.981V186.598Z" fill="#E91E63"/>
<path fill-rule="evenodd" clip-rule="evenodd" d="M1391.77 27.5795C1386.38 30.1234 1383.37 36.5732 1383.73 42.5104C1383.94 45.9717 1385.06 49.258 1385.18 52.6201C1385.25 57.7589 1383.09 61.6584 1377.57 61.0388C1375.21 60.7892 1372.96 59.9469 1370.7 59.3988C1368.44 58.9543 1365.88 58.8954 1363.87 60.1319C1362.77 60.8984 1361.95 61.9668 1361.34 63.1374C1359.27 66.9412 1359.66 71.7929 1361.64 75.6889C1363.62 79.5884 1366.91 82.6286 1370.51 85.0804C1373.33 87.1209 1375.86 88.463 1378.57 90.6985C1379.74 91.616 1380.99 93.1254 1380.26 94.4917C1379.75 95.2723 1378.66 95.5431 1377.68 95.3205C1376.79 95.105 1376.02 94.396 1375.35 93.7862C1373.7 92.2661 1372.06 90.6467 1370 89.9108C1367.85 89.0685 1365.18 89.3053 1363.85 91.1501C1362.94 92.4136 1362.89 94.1939 1363.05 95.8749C1363.97 103.01 1368.17 109.529 1373.59 114.393C1377.95 118.15 1382.92 121.029 1388.1 123.418C1393.77 126.02 1396.81 126.486 1402.6 123.754C1402.8 123.658 1403 123.566 1403.2 123.47C1410.39 119.882 1413.97 114.531 1419.43 108.827C1422.06 106.122 1424.8 103.219 1426.17 99.6958C1427 97.4433 1427.36 94.8823 1426.32 92.6844C1425.29 90.4858 1422.66 88.9451 1420.37 89.6818C1418.58 90.3319 1417.25 92.2767 1415.37 92.5299C1410.21 93.3998 1409.8 85.2924 1410.77 82.1529C1412.27 76.9488 1418.63 75.2202 1422.26 71.844C1425.48 68.9548 1427.07 64.2505 1426.18 59.9809C1426.1 59.3854 1425.91 58.7898 1425.53 58.3857C1424.95 57.8787 1424.16 57.7625 1423.37 57.7419C1422.09 57.6157 1420.6 57.8787 1419.21 58.1425C1416.83 58.5806 1414.36 59.0188 1412.4 57.8858C1410.56 56.7592 1408.25 54.1366 1407.21 52.1372C1403.98 46.2348 1408.88 39.3326 1406.76 33.16C1405.27 28.9762 1400.88 26.6039 1396.44 26.6003C1394.86 26.5628 1393.27 26.9222 1391.77 27.5795Z" fill="#B2EBF2"/>
<path fill-rule="evenodd" clip-rule="evenodd" d="M1396.38 186.598H1387.15V107.29L1379.96 100.243L1381.27 98.9616L1387.15 104.728V78.0432L1379.96 70.9948L1381.27 69.7139L1387.15 75.48V48.5977H1396.38V82.7299L1409.66 69.7139L1410.96 70.9948L1396.38 85.2945V111.978L1409.66 98.9616L1410.96 100.243L1396.38 114.539V186.598Z" fill="#00BCD4"/>
<path fill-rule="evenodd" clip-rule="evenodd" d="M1.04053 80.0642C8.11919 71.0604 18.2905 62.7696 31.1501 55.6582C46.3265 87.3187 41.5354 132.034 1.04053 140.951V80.0642Z" fill="#FFECB3"/>
<path fill-rule="evenodd" clip-rule="evenodd" d="M1.04053 141.019C2.08598 138.524 3.23889 135.256 4.49016 131.437C6.36523 130.401 8.31225 129.749 9.80029 129.357C10.5653 129.155 11.2091 129.023 11.6599 128.941C11.8848 128.899 12.0615 128.87 12.1817 128.852C12.2409 128.843 12.2864 128.837 12.3165 128.832L12.3593 128.827C12.6143 128.795 12.7955 128.564 12.7636 128.309C12.7317 128.054 12.5004 127.873 12.2454 127.905C12.2163 127.911 8.60913 128.353 4.89996 130.176C5.39446 128.645 5.90443 127.033 6.42898 125.354C6.79689 124.175 7.17118 122.962 7.55275 121.722C8.58181 120.481 10.4605 118.998 12.7937 117.838C15.1714 116.653 18.02 115.796 20.9451 115.798C21.8622 115.797 22.7874 115.882 23.709 116.065C23.9613 116.115 24.2053 115.952 24.2554 115.699C24.3055 115.448 24.1425 115.204 23.8902 115.154C22.9049 114.958 21.9186 114.869 20.9451 114.869C17.8388 114.869 14.8609 115.771 12.3793 117.006C10.7028 117.843 9.25389 118.828 8.13922 119.809C9.14825 116.511 10.201 113.038 11.292 109.473C13.5058 107.615 17.2678 105.562 21.476 103.923C25.7498 102.254 30.4953 101.006 34.567 100.754C34.8229 100.738 35.0177 100.518 35.0023 100.262C34.9859 100.005 34.7655 99.8109 34.5096 99.8272C30.2968 100.09 25.4839 101.364 21.1382 103.057C17.4572 104.494 14.1196 106.227 11.7637 107.932C13.3665 102.71 15.0494 97.3183 16.7961 92.0073C17.5419 91.5292 18.3442 90.8389 19.2795 90.0612C20.7739 88.8172 22.5952 87.3483 24.9147 86.1917C27.2351 85.0343 30.0491 84.1846 33.5534 84.1837C33.8894 84.1837 34.2309 84.191 34.5788 84.2074C34.8356 84.2192 35.0523 84.0216 35.0651 83.7648C35.076 83.5089 34.8784 83.2912 34.6216 83.2794C34.2601 83.2621 33.9031 83.2548 33.5534 83.2548C28.6776 83.253 25.0231 84.8467 22.2483 86.6535C20.8595 87.5568 19.6875 88.5121 18.6857 89.3463C18.1812 89.767 17.7186 90.1559 17.297 90.4919C19.0345 85.2638 20.834 80.1385 22.6781 75.362C23.7609 74.5406 24.9967 73.7201 26.2707 73.0607C27.5857 72.3796 28.9408 71.8732 30.1966 71.702C30.4507 71.6665 30.6283 71.4325 30.5928 71.1784C30.5582 70.9243 30.3241 70.7467 30.0701 70.7813C28.664 70.9753 27.2224 71.5235 25.8436 72.2357C24.9603 72.6928 24.1033 73.2192 23.3001 73.7683C25.2808 68.7523 27.3116 64.1662 29.3707 60.3113C29.4909 60.0846 29.4053 59.8032 29.1794 59.683C28.9536 59.5618 28.6713 59.6474 28.5511 59.8733C26.3791 63.9422 24.2481 68.7924 22.1763 74.088C21.7465 73.3749 21.3704 72.5171 21.0653 71.7093C20.8577 71.1611 20.6801 70.6356 20.5326 70.1894C20.3841 69.7413 20.2676 69.378 20.1729 69.1294C20.08 68.8899 19.8113 68.7706 19.5718 68.8625C19.3323 68.9554 19.213 69.2241 19.3059 69.4636C19.3833 69.6639 19.5026 70.0318 19.651 70.4808C19.8751 71.1574 20.1719 72.0308 20.5462 72.9059C20.8841 73.6946 21.283 74.4869 21.7638 75.1489C19.8796 80.0374 18.0464 85.2774 16.2779 90.6158C14.1906 87.2272 11.6153 82.631 9.93416 77.6059C9.8522 77.3619 9.58993 77.2316 9.34587 77.3127C9.10272 77.3937 8.97249 77.6569 9.05354 77.9001C10.8849 83.3732 13.7326 88.2999 15.8982 91.766C14.6669 95.5107 13.4685 99.2936 12.3065 103.027C11.7637 104.774 11.2291 106.51 10.7028 108.225C9.2466 106.349 7.16025 103.407 5.2023 100.392C4.0931 98.6834 3.02488 96.9504 2.13333 95.3731C1.72809 94.6574 1.35926 93.9725 1.04053 93.3387V95.3231C1.13342 95.4906 1.22813 95.66 1.32466 95.8312C3.97745 100.519 8.11464 106.48 10.3722 109.306C9.22383 113.057 8.11919 116.703 7.06372 120.148C6.7805 119.592 6.41805 118.991 5.99004 118.353C4.78157 116.557 3.04219 114.476 1.04053 112.471V113.799C1.53047 114.309 2.00129 114.821 2.44843 115.329C3.53941 116.569 4.48742 117.783 5.21961 118.872C5.90625 119.892 6.40166 120.807 6.64754 121.504C6.27234 122.724 5.90352 123.917 5.54198 125.077C5.02836 126.725 4.52749 128.307 4.04211 129.812C3.14236 127.961 1.95393 126.446 1.04053 125.435V126.865C1.93572 127.968 2.94019 129.441 3.61227 131.133C2.69886 133.922 1.83919 136.411 1.04053 138.508V141.019Z" fill="#FF6F00"/>
<path fill-rule="evenodd" clip-rule="evenodd" d="M52.2076 185.239C53.8414 183.954 56.1763 182.265 59.0805 180.349C71.4547 172.185 94.2279 159.884 118 156.576C118.254 156.54 118.432 156.306 118.396 156.052C118.361 155.798 118.127 155.62 117.873 155.656C101.871 157.886 86.3843 164.126 74.1457 170.467C68.026 173.638 62.7195 176.835 58.5687 179.574C55.0635 181.886 52.3861 183.866 50.7269 185.239H52.2076Z" fill="#AD1457"/>
<path fill-rule="evenodd" clip-rule="evenodd" d="M63.0838 177.54C54.4633 176.062 50.9226 163.605 58.4011 151.184C69.3246 155.982 71.0968 172.672 67.2082 175.026C65.6865 175.947 63.0838 177.54 63.0838 177.54Z" fill="#E19100"/>
<path fill-rule="evenodd" clip-rule="evenodd" d="M84.2442 166.147C76.855 163.215 76.0399 151.473 85.0201 141.829C93.8363 148.144 92.2836 163.319 88.3823 164.683C86.8569 165.218 84.2442 166.147 84.2442 166.147Z" fill="#F8BBD0"/>
<path fill-rule="evenodd" clip-rule="evenodd" d="M71.8672 172.493C70.3391 177.423 73.4454 182.524 79.4112 185.238H91.2618C90.414 175.363 78.9031 168.135 75.6028 170.187C74.2295 171.039 71.8672 172.493 71.8672 172.493Z" fill="#F8BBD0"/>
<path fill-rule="evenodd" clip-rule="evenodd" d="M107.373 158.21C102.303 155.462 102.726 146.931 110.026 140.756C115.835 146.064 113.41 156.864 110.482 157.511C109.337 157.764 107.373 158.21 107.373 158.21Z" fill="#F8BBD0"/>
<path fill-rule="evenodd" clip-rule="evenodd" d="M117.092 154.05C118.706 149.485 125.421 148.051 131.898 152.825C128.682 158.612 120.673 159.898 117.409 157.672C116.594 157.115 116.251 156.431 117.092 154.05Z" fill="#F8BBD0"/>
<path fill-rule="evenodd" clip-rule="evenodd" d="M95.6959 161.854C92.9894 166.946 98.0573 173.821 107.555 174.932C109.461 167.298 101.469 159.638 98.672 160.717C97.5774 161.139 95.6959 161.854 95.6959 161.854Z" fill="#F8BBD0"/>
<path fill-rule="evenodd" clip-rule="evenodd" d="M57.1098 115.354C62.7568 107.819 71.8253 89.639 60.7042 85.663C51.9153 82.5203 52.7003 94.3244 48.8563 95.5356C44.4733 96.9171 42.0545 91.566 37.5558 94.1459C31.2002 97.7922 34.0998 107.056 28.3899 109.186C22.6799 111.316 18.4198 104.488 13.5987 110.921C7.63016 118.884 20.6482 127.684 8.89053 133.416C5.49099 135.072 3.02215 134.84 1.04053 133.737V173.416C2.48941 173.303 3.85633 172.997 5.07663 172.461C12.4868 169.214 11.3967 161.605 15.8972 160.96C20.3987 160.315 28.1504 166.148 33.3239 162.73C42.5162 156.655 29.9717 143.522 36.2854 138.352C42.6 133.182 49.1259 140.943 55.7856 137.036C62.4445 133.129 51.4618 122.889 57.1098 115.354Z" fill="#FFA000"/>
<path fill-rule="evenodd" clip-rule="evenodd" d="M1.04053 150.703C4.46375 148.312 7.91611 147.653 11.1617 147.255C12.9749 147.033 14.7188 146.899 16.3426 146.581C17.9654 146.263 19.478 145.758 20.7857 144.777C21.7674 144.045 22.3166 143.203 22.5943 142.324C22.8047 141.665 22.8739 140.994 22.9085 140.315C22.9595 139.296 22.9377 138.255 23.1362 137.163C23.3356 136.072 23.7454 134.926 24.6816 133.674C25.5249 132.551 26.2662 131.946 26.9792 131.557C27.5138 131.264 28.042 131.091 28.6057 130.929C29.4481 130.687 30.3769 130.475 31.3987 129.9C32.4223 129.325 33.517 128.397 34.74 126.765C35.7117 125.469 36.2289 124.329 36.4967 123.274C36.6998 122.484 36.7626 121.749 36.7908 121.044C36.8309 119.984 36.799 118.994 37.0003 117.913C37.2024 116.832 37.6296 115.644 38.6249 114.174C41.3105 110.223 44.4077 108.552 47.127 107.485C48.4866 106.951 49.7497 106.579 50.8243 106.148C51.3616 105.932 51.8524 105.703 52.2841 105.423C52.7158 105.142 53.091 104.808 53.3724 104.39C54.0936 103.32 54.3231 102.304 54.3222 101.483C54.3204 100.259 53.8332 99.479 53.8058 99.4344C53.6692 99.2167 53.3824 99.153 53.1656 99.2896C52.9489 99.4262 52.8833 99.713 53.0208 99.9298L53.0545 99.9079L53.0199 99.9289L53.0208 99.9298L53.0545 99.9079L53.0199 99.9289C53.0436 99.9653 53.3942 100.575 53.3933 101.483C53.3915 102.136 53.2203 102.949 52.601 103.872C52.4061 104.162 52.1357 104.412 51.7787 104.643C51.1576 105.05 50.2779 105.381 49.2361 105.742C47.6734 106.285 45.7473 106.902 43.7529 108.065C41.7576 109.227 39.695 110.941 37.8563 113.653C36.9156 115.039 36.4238 116.244 36.1707 117.339C35.7936 118.984 35.9412 120.341 35.8219 121.68C35.7007 123.023 35.3592 124.38 33.996 126.207C32.9587 127.591 32.0599 128.396 31.2466 128.91C30.6347 129.296 30.0673 129.523 29.4981 129.704C28.6485 129.977 27.7779 130.137 26.8444 130.582C25.9119 131.027 24.9512 131.761 23.9385 133.117C23.0269 134.331 22.5506 135.501 22.3047 136.592C21.9368 138.229 22.0634 139.679 21.9341 140.896C21.8713 141.507 21.7511 142.055 21.4997 142.564C21.2475 143.073 20.8631 143.556 20.2284 144.034C19.0764 144.899 17.715 145.366 16.1641 145.669C13.8409 146.126 11.1162 146.2 8.21481 146.77C5.89533 147.227 3.45928 148.012 1.04053 149.582V150.703Z" fill="#FF6F00"/>
<path fill-rule="evenodd" clip-rule="evenodd" d="M70.4211 155.284C74.0638 162.576 72.6094 179.864 54.9824 184.927C54.6154 185.033 54.2357 185.137 53.8514 185.239H1.04053V168.869C10.6454 157.693 28.9864 143.517 38.0976 140.403C51.3853 135.859 64.325 143.081 70.4211 155.284Z" fill="#E91E63"/>
<path fill-rule="evenodd" clip-rule="evenodd" d="M1.04053 179.159C3.03763 178.408 5.37351 177.547 7.9498 176.611C16.7606 173.412 28.3899 169.346 38.9446 165.844C44.221 164.094 49.2288 162.485 53.4798 161.196C57.7299 159.909 61.2269 158.941 63.4599 158.477C63.7112 158.425 63.8724 158.179 63.8196 157.928C63.7677 157.677 63.5218 157.515 63.2714 157.567C60.2197 158.203 54.9979 159.719 48.7152 161.699C39.2961 164.669 27.512 168.679 17.2469 172.3C10.9833 174.509 5.28973 176.572 1.04053 178.167V179.159Z" fill="#F8BBD0"/>
<path fill-rule="evenodd" clip-rule="evenodd" d="M32.6573 181.487C31.9196 182.612 30.1575 182.761 28.7214 181.819C27.2843 180.876 26.7179 179.201 27.4555 178.076C28.1932 176.951 29.9553 176.803 31.3924 177.745C32.8285 178.687 33.3958 180.362 32.6573 181.487Z" fill="#F8BBD0"/>
<path fill-rule="evenodd" clip-rule="evenodd" d="M32.9851 161.127C32.7465 162.269 31.1902 162.91 29.5072 162.558C27.8261 162.205 26.6568 160.994 26.8963 159.852C27.1359 158.709 28.6922 158.07 30.3733 158.422C32.0553 158.774 33.2255 159.984 32.9851 161.127Z" fill="#F8BBD0"/>
<path fill-rule="evenodd" clip-rule="evenodd" d="M19.2822 181.814C19.1338 182.525 18.1648 182.924 17.1185 182.705C16.0721 182.486 15.3454 181.733 15.4938 181.021C15.6432 180.311 16.6112 179.912 17.6567 180.132C18.704 180.351 19.4316 181.104 19.2822 181.814Z" fill="#F8BBD0"/>
<path fill-rule="evenodd" clip-rule="evenodd" d="M23.2136 157.854C23.5314 158.578 22.9231 159.546 21.8558 160.014C20.7876 160.481 19.6647 160.271 19.3469 159.546C19.03 158.821 19.6374 157.854 20.7056 157.386C21.7738 156.918 22.8967 157.128 23.2136 157.854Z" fill="#F8BBD0"/>
<path fill-rule="evenodd" clip-rule="evenodd" d="M41.8232 177.843C41.724 178.331 41.0601 178.607 40.3416 178.46C39.623 178.312 39.1231 177.797 39.2223 177.309C39.3225 176.822 39.9864 176.545 40.704 176.693C41.4225 176.84 41.9234 177.355 41.8232 177.843Z" fill="#F8BBD0"/>
<path fill-rule="evenodd" clip-rule="evenodd" d="M29.7695 152.023C30.1384 152.485 29.887 153.3 29.2077 153.845C28.5274 154.388 27.6768 154.455 27.3071 153.993C26.9392 153.531 27.1896 152.716 27.8699 152.173C28.5492 151.628 29.4007 151.563 29.7695 152.023Z" fill="#F8BBD0"/>
<path fill-rule="evenodd" clip-rule="evenodd" d="M25.8181 184.045C26.0612 184.349 26.0348 184.806 25.7944 185.239H23.2154C23.2964 184.877 23.5414 184.494 23.9175 184.193C24.5978 183.649 25.4484 183.583 25.8181 184.045Z" fill="#F8BBD0"/>
</svg>
