<svg width="82" height="108" viewBox="0 0 82 108" fill="none" xmlns="http://www.w3.org/2000/svg">
<path d="M65.8257 97.4085L43.3248 107.191C42.1202 107.715 40.7521 107.715 39.5475 107.191L17.0466 97.4085C15.317 96.6565 14.1982 94.9502 14.1982 93.064V73.1755H68.6741V93.064C68.6741 94.9502 67.5553 96.6565 65.8257 97.4085Z" fill="#ED9231"/>
<path d="M39.503 85.2955L3.74028 69.3092C0.00161248 67.6382 0.00161248 62.3311 3.74028 60.66L39.503 44.6738C40.7334 44.124 42.1392 44.124 43.3696 44.6738L79.1323 60.66C82.8709 62.3311 82.8709 67.6382 79.1323 69.3092L43.3696 85.2955C42.1392 85.8452 40.7334 85.8452 39.503 85.2955Z" fill="#ED9231"/>
<path d="M79.9811 61.1477C79.7228 61.3316 79.4412 61.4972 79.1319 61.6355L43.3697 77.6212C42.1393 78.171 40.7335 78.171 39.5031 77.6212L3.74041 61.6355C3.43109 61.4972 3.14952 61.3321 2.89125 61.1477C0.029999 63.1871 0.311565 67.7764 3.74041 69.3091L39.5031 85.2949C40.7335 85.8446 42.1393 85.8446 43.3697 85.2949L79.1324 69.3091C82.5612 67.7764 82.8423 63.1871 79.9811 61.1477Z" fill="#D5832C"/>
<path d="M6.41512 92.5193C5.76128 92.5193 5.23087 91.9893 5.23087 91.335V70.5051C5.23087 69.9643 5.5972 69.4924 6.12116 69.3581L41.1418 60.3832C41.7748 60.2191 42.4207 60.6023 42.5828 61.2363C42.7459 61.8703 42.3632 62.5152 41.7297 62.6773L7.59938 71.4247V91.335C7.59988 91.9893 7.06947 92.5193 6.41512 92.5193Z" fill="#FFC91D"/>
<path d="M8.59223 94.3937H4.23788C3.39021 94.3937 2.70316 93.7066 2.70316 92.8589V87.4477C2.70316 85.3975 4.36528 83.7358 6.41506 83.7358C8.46532 83.7358 10.127 85.398 10.127 87.4477V92.8589C10.1274 93.7066 9.4399 94.3937 8.59223 94.3937Z" fill="#F79219"/>
<path d="M47.9523 58.5937C53.3283 57.3906 58.4341 54.6771 62.5917 50.4512C73.9331 38.9238 73.8597 20.1433 62.4326 8.70072C50.6108 -3.1369 31.2775 -2.89549 19.7626 9.42545C9.20785 20.7188 9.17018 38.4604 19.6788 49.7963C23.9737 54.4293 29.369 57.3683 35.0608 58.6175C35.5773 58.7311 36.017 59.0671 36.2435 59.545L39.9812 67.4293C40.59 68.7137 42.4176 68.7137 43.0264 67.4293L46.7764 59.5192C47.002 59.0438 47.4382 58.7087 47.9523 58.5937Z" fill="#497F83"/>
<path d="M21.8607 48.7643C21.5831 48.7643 21.3203 48.6508 21.132 48.4471C20.9535 48.2537 20.8593 48.0014 20.8692 47.7382C20.8791 47.4705 20.9932 47.2276 21.1865 47.0487C21.5731 46.6917 22.2324 46.7165 22.5894 47.0987C22.9611 47.5002 22.9364 48.1298 22.5348 48.5016C22.3514 48.6706 22.1085 48.7643 21.8607 48.7643ZM19.392 45.6661C19.0648 45.6661 18.7575 45.508 18.5691 45.2353C15.4511 40.65 13.8004 35.2616 13.8004 29.6546C13.7954 22.5961 16.4276 15.8936 21.2113 10.7778C26.5104 5.10737 33.6933 1.98438 41.4413 1.98438H41.4463C48.8522 1.98438 55.8021 4.86447 61.0319 10.1042C61.4136 10.4859 61.4136 11.1154 61.0269 11.5016C60.6552 11.8788 60.0008 11.8788 59.629 11.5016C54.771 6.64358 48.3169 3.96723 41.4463 3.96723C34.2584 3.96723 27.5861 6.86715 22.6588 12.1316C18.2221 16.8805 15.7783 23.1017 15.7783 29.6551C15.7783 34.8601 17.31 39.8618 20.2099 44.115C20.5173 44.5711 20.3983 45.1858 19.9472 45.4931C19.7836 45.6071 19.5903 45.6661 19.392 45.6661Z" fill="#61A9AF"/>
<path d="M62.4328 8.7008C61.5851 7.85214 60.6953 7.07288 59.7762 6.34814C68.8463 17.8769 68.1538 34.8031 57.6348 45.4941C53.4772 49.7196 48.3714 52.4336 42.9954 53.6367C42.4818 53.7517 42.0451 54.0868 41.8195 54.5627L38.0695 62.4728C38.0001 62.6195 37.9128 62.7474 37.8152 62.8604L39.9814 67.4299C40.5902 68.7143 42.4178 68.7143 43.0266 67.4299L46.7767 59.5198C47.0022 59.0439 47.4389 58.7088 47.9525 58.5938C53.3285 57.3907 58.4343 54.6772 62.5919 50.4512C73.9333 38.9239 73.8594 20.1433 62.4328 8.7008Z" fill="#365F63"/>
<path d="M62.4329 8.70089C62.01 8.27755 61.5753 7.87404 61.1341 7.48193C71.3676 19.0033 71.0484 36.8584 60.1134 47.9728C55.9559 52.1982 50.85 54.9122 45.474 56.1153C44.9605 56.2303 44.5237 56.5655 44.2982 57.0413L40.5481 64.9514C40.2824 65.5126 39.7837 65.8283 39.2558 65.8992L39.9815 67.43C40.5903 68.7144 42.4179 68.7144 43.0267 67.43L46.7768 59.5199C47.0023 59.044 47.439 58.7089 47.9526 58.5939C53.3286 57.3908 58.4344 54.6773 62.592 50.4513C73.9334 38.924 73.8595 20.1434 62.4329 8.70089Z" fill="#2A4A4D"/>
<path d="M32.3755 42.0935V15.9595C32.3696 14.7608 33.3362 13.7848 34.5349 13.7788C34.9944 13.7768 35.4425 13.9201 35.8148 14.1893L53.947 27.2592C54.9191 27.9602 55.1392 29.3165 54.4382 30.2885C54.3019 30.4774 54.1359 30.6435 53.947 30.7798L35.8148 43.8527C34.8417 44.5532 33.4845 44.3321 32.784 43.3585C32.5193 42.9902 32.3765 42.5475 32.3755 42.0935Z" fill="white"/>
</svg>
